<svg xmlns="http://www.w3.org/2000/svg" width="800" height="800" viewBox="0 0 800 800"><g><path fill="#E0E3E0" d="M389.584 291.653c-9.635-1.268-40.007 7.75-40.007 7.75-5.586 5.294-11.217 15.387-6.335 23.353 4.325 7.055 16.258 8.292 22.39 3.818-4.677 6.85-6.71 18.756 1.145 23.976 11.66 7.748 16.76-1.127 21.51-8.875.505 7.53 12.88 8.923 17.84 6.62 17.96-8.332-3.31-54.9-16.543-56.642z"/><path fill="#FDFDFD" d="M442.082 239.412c-3.686-12.238-14.214-13.625-21.562-10.326 7.627-5.09 5.088-20.027-1.655-25.123-5.542-4.19-13.587-2.675-18.772-.68v-2.223c-6.128-5.12-18.847 4.535-20.592 11.127-1.667 6.308 1.746 12.793 5.73 16.782-21.866-15.688-42.072 8.787-27.3 29.25-7.304-3.593-17.007 5.217-19.228 12.29-3.113 9.917-1.746 22.454 5.248 30.003 8.35 9.016 26.235 10 33.186-2.736 2.494 28.85 46.044 19.96 36.335-4.79 11.284 9.194 20.73.86 24.032-8.154 3.16-8.625-1.368-21.218-10.505-21.547 11.56-1.622 19.062-10.667 15.085-23.874zM481.75 296.805c-2.635-12.224-15.218-21.114-26.39-13.962 3.586-9.01 5.454-25.122-4.044-31.1-7.83-4.927-21.928-1.63-26.76 6.168 0 0-43.258 46.656-43.986 46.285-9.535 20.39 13.552 34.28 23.444 19.35-10.94 25.486 21.067 38.82 31.023 13.443 12.08 30.38 46.71 5.932 27.34-14.544 12.027-.637 22.318-11.974 19.372-25.64z"/><path fill="#E0E3E0" d="M338.702 270.513c-3.113 9.916-1.746 22.453 5.248 30.002 8.35 9.016 26.235 10 33.186-2.736 2.494 28.85 46.044 19.96 36.335-4.79 11.284 9.193 20.73.858 24.032-8.155 3.16-8.625-1.368-21.218-10.505-21.547 11.56-1.623 19.062-10.667 15.085-23.875-2.587-8.594-8.55-11.832-14.413-11.858 3.103 11.737-2.46 28.408-15.876 26.848 14.134 4.93-1.46 19.168-10.17 15.242 7.06 8.502 8.963 28.093-9.4 30.87-11.994 1.815-17.744-15.095-19.276-24.368-.14 13.812-12.208 23.258-21.653 16.59-11.988-8.462-14.733-27.974 6.297-34.448l-1.23-.64c-7.06-1.79-15.595 6.284-17.66 12.863zM431.912 337.336c13.195 31.835 51.02 6.217 29.862-15.24 13.135-.668 24.375-12.55 21.158-26.87-2.876-12.81-16.62-22.126-28.823-14.632.205-.498.407-1.022.6-1.56-.74.654-1.45 1.343-2.107 2.084 8.573 1.408 18.626 6.625 18.295 17.014-.348 10.932-10.195 17.49-20.012 18.172 8.896 5.606 13.487 14.96 2.82 22.006-11.464 7.568-19.486-8.15-28.083-19.214 9.647 36.992-36.088 30.492-37.4 14.852-9.852 31.287 40.59 36.9 43.69 3.388zM390.584 291.653c-9.635-1.268-40.007 7.75-40.007 7.75-5.586 5.294-11.217 15.387-6.335 23.353 4.325 7.055 16.258 8.292 22.39 3.818-4.677 6.85-6.71 18.756 1.145 23.976 11.66 7.748 16.76-1.127 21.51-8.875.505 7.53 12.88 8.923 17.84 6.62 17.96-8.332-3.31-54.9-16.543-56.642z"/><path fill="#FDFDFD" d="M443.082 239.412c-3.686-12.238-14.214-13.625-21.562-10.326 7.627-5.09 5.088-20.027-1.655-25.123-5.542-4.19-13.587-2.675-18.772-.68v-2.223c-6.128-5.12-18.847 4.535-20.592 11.127-1.667 6.308 1.746 12.793 5.73 16.782-21.866-15.688-42.072 8.787-27.3 29.25-7.304-3.593-17.007 5.217-19.228 12.29-3.113 9.917-1.746 22.454 5.248 30.003 8.35 9.016 26.235 10 33.186-2.736 2.494 28.85 46.044 19.96 36.335-4.79 11.284 9.194 20.73.86 24.032-8.154 3.16-8.625-1.368-21.218-10.505-21.547 11.56-1.622 19.062-10.667 15.085-23.874zM482.75 296.805c-2.635-12.224-15.218-21.114-26.39-13.962 3.586-9.01 5.454-25.122-4.044-31.1-7.83-4.927-21.928-1.63-26.76 6.168 0 0-43.258 46.656-43.986 46.285-9.535 20.39 13.552 34.28 23.444 19.35-10.94 25.486 21.067 38.82 31.023 13.443 12.08 30.38 46.71 5.932 27.34-14.544 12.027-.637 22.318-11.974 19.372-25.64z"/><path fill="#E0E3E0" d="M339.702 270.513c-3.113 9.916-1.746 22.453 5.248 30.002 8.35 9.016 26.235 10 33.186-2.736 2.494 28.85 46.044 19.96 36.335-4.79 11.284 9.193 20.73.858 24.032-8.155 3.16-8.625-1.368-21.218-10.505-21.547 11.56-1.623 19.062-10.667 15.085-23.875-2.587-8.594-8.55-11.832-14.413-11.858 3.103 11.737-2.46 28.408-15.876 26.848 14.134 4.93-1.46 19.168-10.17 15.242 7.06 8.502 8.963 28.093-9.4 30.87-11.994 1.815-17.744-15.095-19.276-24.368-.14 13.812-12.208 23.258-21.653 16.59-11.988-8.462-14.733-27.974 6.297-34.448l-1.23-.64c-7.06-1.79-15.595 6.284-17.66 12.863zM432.912 337.336c13.195 31.835 51.02 6.217 29.862-15.24 13.135-.668 24.375-12.55 21.158-26.87-2.876-12.81-16.62-22.126-28.823-14.632.205-.498.407-1.022.6-1.56-.74.654-1.45 1.343-2.107 2.084 8.573 1.408 18.626 6.625 18.295 17.014-.348 10.932-10.195 17.49-20.012 18.172 8.896 5.606 13.487 14.96 2.82 22.006-11.464 7.568-19.486-8.15-28.083-19.214 9.647 36.992-36.088 30.492-37.4 14.852-9.852 31.287 40.59 36.9 43.69 3.388z"/><g fill="#113E44" opacity=".2"><path d="M143.564 381.393c-12.41.02-22.547 10.195-22.525 22.605l.19 110.63c.024 12.41 10.194 22.548 22.606 22.527l64.084-.11c12.41-.024 22.546-10.196 22.525-22.605l-.194-110.632c-.02-12.412-10.192-22.548-22.602-22.526l-64.084.11zM72.188 510.894l.122 20.784c.007 1.257 1.042 2.278 2.3 2.27h.26c.012 1.776 1.473 3.217 3.246 3.208l12.903-.077c1.774-.012 3.217-1.47 3.207-3.245l.26-.003c1.258-.007 2.28-1.04 2.273-2.298l-.236-39.978-.107-18.28-.007-1.01c-.007-1.26-1.04-2.28-2.298-2.272l-.262.002v-.002c-.02-3.683-4.23-6.088-5.413-6.08l-.275.002-.028-4.768c-.003-.66-.497-1.183-1.125-1.29l-.012-1.93c-.002-.532-.443-1.31-.98-1.728l-3.897-3.047c-.535-.42-.97-.323-.966.21l.04 6.528c-.627.117-1.114.646-1.11 1.305l.03 4.768-.278.002c-1.182.007-5.36 2.464-5.34 6.145l-.263.002c-1.257.006-2.278 1.04-2.27 2.298l.007 1.01.218 37.474zM74.09 439.96l19.88-.117c1.256-.008 2.28-1.04 2.27-2.3l-.128-22.004c-.007-1.26-1.04-2.28-2.298-2.273h-.11v-.187c-.007-1.012-.838-1.834-1.85-1.827l-15.986.095c-1.012.006-1.833.838-1.83 1.846l.002.19h-.107c-1.258.007-2.28 1.042-2.272 2.298l.13 22.008c.01 1.256 1.042 2.278 2.3 2.27zM243.26 587.273L94.37 588.54c-16.704.143-30.252 13.926-30.11 30.628l.733 86.248c.145 16.704 13.925 30.25 30.628 30.11l148.896-1.27c16.702-.14 30.25-13.923 30.11-30.624l-.733-86.25c-.144-16.7-13.923-30.25-30.63-30.11zM296.286 728.32l251.14-.285 1.642-163.743-251.14.283zM187.427 566.245c1.416 1.704 3.678 2.84 3.678 2.84l39.98.052 9.083-4.242 1.695.002c1.663.002 3.19-.553 4.425-1.48l2.27.004c4.605.007 8.34-2.605 8.344-5.833.006-3.23-3.724-5.848-8.326-5.854l-2.16-.003c-1.25-.98-2.82-1.57-4.53-1.57l-1.135-.003c-.167-.356-.285-.57-.285-.57l-18.71-.025c.093.19.174.38.26.57l-113.09-.15c-1.713 0-3.285.585-4.538 1.562l-3.91-.005c-3.97-.006-7.277 1.93-8.125 4.528l-3.128-.004c-.713 0-1.283.566-1.283 1.273s.568 1.276 1.28 1.28l3.108.003c.81 2.628 4.136 4.603 8.134 4.605l4.022.005c1.23.93 2.758 1.488 4.42 1.49l112.574.148c-.493.912-.883 1.42-.883 1.42l-33.168-.043zM597.252 439.695l4.022.005c1.23.93 2.76 1.487 4.42 1.49l112.575.147c-.495.913-.885 1.422-.885 1.422l-33.168-.046c1.416 1.703 3.678 2.838 3.678 2.838l39.978.053 9.085-4.242 1.695.002c1.662.002 3.19-.552 4.424-1.478l2.27.003c4.606.006 8.34-2.607 8.344-5.834.008-3.23-3.723-5.848-8.325-5.854l-2.16-.003c-1.25-.98-2.82-1.57-4.53-1.572l-1.134-.002c-.167-.356-.285-.57-.285-.57l-18.71-.025c.092.192.174.382.258.572l-113.09-.15c-1.71-.003-3.284.583-4.537 1.56l-3.91-.004c-3.968-.005-7.275 1.93-8.123 4.53l-3.13-.005c-.71-.002-1.28.566-1.282 1.273 0 .707.568 1.275 1.28 1.28l3.11.003c.81 2.627 4.135 4.602 8.132 4.605zM590.468 484.628l.084 25.89 8.533-.027 5-.015 3.043-.01 8.752-.028 1.22-.003 19.663-.065.285-.002 19.43-.063h.515l6.934-.024 1.306-.004 5.956-.018 23.57-.077 2.126-.005 19.027-.063.92-.002 19.655-.064h.29l13.534-.045-.083-25.89zM722.514 391.47l-19.896 9.847c-.465.23-.657.773-.428 1.214.23.44.794.61 1.26.38l19.896-9.845c1.334-.66 2.333-1.77 2.813-3.13.476-1.358.377-2.802-.28-4.063-.658-1.262-1.797-2.188-3.207-2.614-1.407-.426-2.916-.297-4.25.363l-21.115 10.452c-3.696 1.827-5.223 6.157-3.4 9.654 1.577 3.02 5.15 4.443 8.477 3.59.52-.133 1.03-.322 1.53-.57l23.902-11.828c2.23-1.104 3.9-2.962 4.7-5.234.8-2.27.633-4.686-.468-6.793-1.1-2.11-3.002-3.66-5.356-4.372-2.357-.71-4.884-.494-7.112.61l-14.278 7.067c-.468.23-.66.775-.428 1.214.228.44.794.613 1.26.38l14.28-7.065c1.778-.88 3.795-1.056 5.672-.488 1.88.568 3.4 1.805 4.274 3.488.88 1.684 1.01 3.607.374 5.42-.64 1.814-1.972 3.297-3.75 4.178l-23.9 11.83c-2.765 1.366-6.126.352-7.49-2.262-1.362-2.614-.222-5.854 2.544-7.224l21.116-10.45c.883-.436 1.882-.522 2.814-.24.933.282 1.688.897 2.123 1.732.436.833.5 1.788.183 2.688-.318.9-.98 1.635-1.862 2.073zM614.91 289.55l23.9 11.83c.5.247 1.013.437 1.532.57 3.327.853 6.9-.57 8.478-3.59 1.82-3.498.295-7.828-3.4-9.655l-21.116-10.45c-1.334-.66-2.843-.79-4.25-.364-1.41.427-2.55 1.354-3.206 2.615-.658 1.26-.757 2.704-.28 4.062.48 1.36 1.48 2.47 2.813 3.13l19.897 9.847c.466.23 1.03.06 1.26-.38.23-.44.037-.985-.428-1.214l-19.897-9.848c-.884-.438-1.544-1.174-1.86-2.072-.316-.9-.253-1.855.183-2.688.436-.835 1.19-1.45 2.123-1.73.932-.284 1.93-.197 2.813.24L644.59 290.3c2.765 1.37 3.905 4.61 2.542 7.225-1.363 2.613-4.725 3.628-7.488 2.262l-23.9-11.83c-1.78-.88-3.11-2.363-3.75-4.177-.637-1.813-.506-3.737.373-5.42.875-1.685 2.395-2.92 4.274-3.49 1.878-.566 3.895-.392 5.673.49l14.28 7.063c.466.234 1.032.063 1.26-.38.232-.438.04-.983-.428-1.214l-14.278-7.067c-2.23-1.105-4.755-1.322-7.112-.61-2.354.71-4.257 2.262-5.355 4.372-1.1 2.107-1.267 4.52-.468 6.793.797 2.27 2.467 4.13 4.698 5.233zM720.008 363.867l-20.156 9.305c-.47.217-.678.756-.46 1.202s.777.632 1.25.414l20.155-9.302c1.35-.625 2.38-1.708 2.895-3.054.515-1.345.455-2.79-.168-4.068-.624-1.28-1.734-2.236-3.132-2.7s-2.91-.376-4.26.248l-21.394 9.875c-3.742 1.727-5.385 6.014-3.658 9.56 1.494 3.062 5.026 4.58 8.374 3.817.524-.118 1.04-.293 1.548-.528l24.213-11.175c2.262-1.043 3.98-2.855 4.84-5.105.86-2.25.76-4.667-.283-6.803-1.04-2.14-2.9-3.743-5.234-4.517-2.337-.774-4.868-.626-7.127.418l-14.465 6.677c-.473.218-.678.757-.46 1.202.218.448.78.636 1.25.415l14.466-6.676c1.804-.83 3.822-.95 5.686-.333 1.862.62 3.347 1.896 4.178 3.603.83 1.707.91 3.634.226 5.43-.688 1.795-2.06 3.24-3.862 4.072l-24.213 11.178c-2.798 1.29-6.13.187-7.424-2.463-1.29-2.652-.06-5.86 2.74-7.153l21.39-9.874c.896-.412 1.897-.47 2.82-.163.926.307 1.662.942 2.075 1.79.413.844.45 1.8.11 2.69-.34.89-1.022 1.607-1.917 2.02zM597.374 730.027l-.227-206.824 146.24-.16.226 206.824zM613.94 403.793c23.642 10.795 51.554.383 62.347-23.256 10.795-23.636.385-51.55-23.254-62.342-22.428-10.242-48.692-1.384-60.544 19.74l-5.184-2.367c-1.842-.84-4.037-.02-4.877 1.82l-1.312 2.868c-.84 1.842-.02 4.035 1.818 4.877l5.446 2.487c-6.59 22.134 3.954 46.305 25.56 56.173zM72.576 288.857l.62-.01 1.154 72.58.23-.01c-.005.156-.018.312-.016.472.072 4.617 3.89 8.314 8.51 8.24l9.2-.146.12 7.6 9.513-.152-.12-7.6 68.236-1.085.016.983 7.856-.126-.016-.982 34.635-.55-.048-3.103-.725.01-.165-10.356 1.033-.05-1.034-64.928-.047-2.998.31-.005-.915-57.382-.31.006-.697-43.733-34.944.598-.01-.558-7.856.125.01.568-86.95 1.488c-4.566.073-8.363 3.652-8.375 8.2l.002.155-.078.002.563 35.357-.62.01.916 57.38zM748.442 462.373l-11.945-5.313h-.002l-139.394-.462-6.323-.02c-2.36-.008-4.302 1.917-4.31 4.28l-.023 7.158c-.007 2.363 1.92 4.302 4.28 4.31l145.72.483 17.89-7.817-5.892-2.62zM570.56 567.66l-5.314 11.945v.002L564.784 719l-.02 6.325c-.008 2.36 1.917 4.302 4.28 4.31l7.158.023c2.363.007 4.302-1.92 4.31-4.28l.483-145.72-7.816-17.89-2.62 5.892zM570.946 539.463l-.217-187.297c-.004-3.703-3.038-6.73-6.742-6.728l-14.105.016-.004-3.43 20.047-.023 28.732-71.188c3.388-5.33.865-9.187-7.408-9.178l-123.902.143c.098-6.645-1.662-13.126-6.957-16.458-2.376-1.497-5.332-2.224-8.43-2.31.52-2.968.307-6.332-.805-10.023-.145-.48-.303-.936-.467-1.382-.047-.128-.096-.252-.144-.377-.136-.346-.276-.683-.423-1.01-.043-.093-.083-.19-.126-.283-.188-.4-.383-.782-.587-1.15-.05-.09-.102-.175-.152-.263-.166-.288-.337-.567-.514-.836-.063-.097-.125-.193-.19-.288-.227-.333-.46-.655-.7-.958-.01-.01-.018-.02-.026-.03-.237-.296-.482-.574-.733-.843-.067-.072-.136-.143-.205-.214-.222-.23-.448-.448-.68-.657-.044-.04-.087-.082-.13-.12-.28-.247-.564-.477-.855-.694-.05-.037-.098-.07-.147-.105-.254-.185-.51-.36-.772-.522l-.166-.104c-.62-.376-1.262-.695-1.916-.962-.042-.018-.084-.034-.127-.05-.676-.27-1.365-.48-2.063-.64h-.002c-.36-.08-.72-.148-1.082-.202h-.01c-1.536-.23-3.094-.215-4.612 0-.462-.492-.947-.943-1.46-1.33-.144-.11-.295-.197-.44-.298 3.552-5.884 1.653-15.77-2.994-20.764l5.56-.075-.064-4.46c.794.198 1.583.407 2.362.638.688-1.42 1.342-2.89 1.977-4.383 4.583 3.037 8.592 6.848 11.82 11.254l.06.08c.51.698 1 1.41 1.47 2.138.032.052.064.105.1.158.436.683.854 1.378 1.256 2.085.033.06.067.117.1.175.397.707.772 1.427 1.13 2.156.072.145.142.29.21.436.354.735.692 1.478 1.006 2.234.81-2.12 1.458-4.315 1.946-6.568.268.343.552.674.81 1.024.046.063.095.126.14.19.212.288.416.58.62.874l.27.394c.182.27.36.537.538.81.112.173.22.35.33.523.23.364.45.73.67 1.103.168.283.334.567.495.855.11.194.214.39.318.585.146.27.29.54.432.812.098.19.193.38.29.572.148.3.294.604.437.908.076.165.155.328.23.494.214.47.42.945.62 1.424 1.985-5.19 3.047-10.818 2.966-16.698-.008-.603-.033-1.2-.064-1.798-.006-.1-.01-.202-.017-.302-.034-.576-.08-1.148-.136-1.717l-.03-.296c-.063-.59-.132-1.18-.217-1.763v-.003c-.086-.594-.188-1.184-.296-1.77-.013-.07-.025-.143-.04-.214-.108-.57-.23-1.138-.358-1.702-.017-.076-.035-.15-.054-.226-.278-1.18-.604-2.34-.973-3.482-.013-.032-.022-.065-.033-.098-.185-.568-.382-1.13-.59-1.69-.017-.045-.034-.09-.05-.137-.652-1.738-1.408-3.427-2.26-5.058l-.02-.037c-3.544-6.77-8.748-12.553-15.08-16.836 1.11-7.44 1.654-15.266 1.543-23.338-.207-14.82-2.593-28.747-6.626-40.948l.425.057-1.868-4.147c-4.286-11.482-10.078-21.236-16.9-28.478l-.084-.092c-.455-.48-.914-.946-1.377-1.404-.073-.073-.145-.15-.22-.222-.434-.425-.874-.835-1.316-1.24-.1-.092-.2-.19-.3-.28-.542-.49-1.088-.962-1.64-1.42-.54.472-1.07.96-1.596 1.46-.115.11-.228.227-.34.338l-.12.118c-.39-.438-.783-.867-1.18-1.288-.02-.02-.036-.04-.054-.058-.47-.496-.943-.978-1.423-1.45-.057-.057-.113-.118-.172-.175-.446-.437-.898-.858-1.354-1.274-.09-.082-.178-.17-.268-.25-.54-.488-1.088-.962-1.64-1.42-.538.473-1.07.96-1.6 1.463-.1.095-.195.196-.294.292-.43.416-.858.836-1.28 1.272-.073.076-.146.157-.22.234-.447.467-.892.943-1.33 1.432-.03.035-.06.072-.092.106-14.188 15.92-23.337 43.223-22.906 74.146.112 8.08.874 15.894 2.196 23.307-11.8 8.458-19.393 22.206-19.178 37.643.082 5.878 1.3 11.477 3.425 16.61 1.268-3.317 2.92-6.452 4.896-9.356.404 4.692 1.52 9.18 3.25 13.358 4.086-10.703 12.136-19.516 22.414-24.7l.035 2.49c-5.276 2.23-10.476 7.422-11.546 11.466-1.668 6.308 1.745 12.793 5.728 16.782-21.865-15.687-42.07 8.788-27.298 29.25-2.42-1.19-5.104-1.013-7.692.005l-.01.004c-.22.086-.437.18-.654.277l-.038.018c-.21.096-.422.197-.63.304l-.052.026c-.206.106-.41.216-.615.332-.02.01-.04.022-.058.034-.203.116-.405.236-.605.36-.017.01-.033.022-.05.033-.203.13-.404.26-.604.396-.01.008-.02.016-.033.023-1.23.843-2.394 1.844-3.446 2.938l-.125.127c-.124.13-.244.264-.365.397-.064.07-.13.14-.192.21-.107.122-.21.244-.314.366-.073.086-.146.17-.218.258-.095.114-.187.23-.278.346l-.23.292c-.084.11-.166.22-.25.333-.076.104-.153.208-.228.313-.078.108-.153.217-.228.326-.076.11-.15.22-.223.33-.07.106-.14.21-.207.317-.074.115-.145.23-.215.347-.063.103-.125.205-.185.307-.07.12-.137.24-.204.36-.057.1-.112.198-.166.298-.066.125-.13.25-.192.374l-.033.064-101.433.117c-9.112.012-10.223 4.73-4.454 13.822l25.69 66.496 20.838-.024.005 3.43-.836.002h-.156l-13.112.015c-3.705.004-6.732 3.04-6.727 6.744l.215 187.3c.005 3.702 3.042 6.73 6.744 6.726l288.775-.334c3.703-.005 6.73-3.04 6.726-6.743zM535.123 345.47l-54.112.064c-.442-1.138-1.02-2.284-1.753-3.428l55.862-.064.003 3.43zm-231.05-3.163l55.52-.064c2.978 2.085 6.897 3.06 10.653 2.934 2.783.05 5.516-.495 7.77-1.638-.408.67-.79 1.376-1.14 2.114l-72.8.084-.003-3.43zM756.304 290.64l-8.982-12.408 21.98-46.44-157.69-9.633L719.033 338l21.982-46.44 15.29-.92.002.002zM270.642 219.13l.897 7.984-2.098-.032 1.214 13.168c.215 2.387.29 3.512 3.456 3.56l18.387.28c3.17.05 3.273-1.08 3.567-3.453l1.61-13.124-2.097-.032 1.14-7.95c7.17-4.27 12.012-12.045 12.152-20.994.21-13.735-10.756-25.038-24.486-25.248-13.736-.21-25.034 10.75-25.244 24.487-.14 8.95 4.472 16.868 11.5 21.356zM294.882 169.13c.64.243 1.35-.08 1.593-.717l5.68-14.892c.242-.64-.08-1.353-.716-1.59-.636-.244-1.35.076-1.59.714l-5.683 14.896c-.243.63.075 1.35.715 1.59zM305.717 174.433l10.43-12.05c.447-.515.387-1.302-.127-1.744-.52-.447-1.3-.388-1.747.127l-10.43 12.052c-.447.518-.386 1.293.127 1.74.52.445 1.3.39 1.747-.127zM310.654 182.772c.336.595 1.088.81 1.686.474l13.927-7.755c.593-.338.804-1.084.472-1.683-.333-.595-1.084-.808-1.682-.474l-13.923 7.76c-.598.332-.813 1.08-.48 1.68zM314.128 192.77c.103.68.738 1.137 1.41 1.03l15.744-2.53c.673-.107 1.136-.742 1.028-1.412-.107-.677-.742-1.135-1.415-1.032l-15.744 2.53c-.67.105-1.13.738-1.022 1.414zM284.48 167.14c.688.012 1.248-.534 1.257-1.22l.243-15.934c.01-.688-.533-1.25-1.22-1.26-.68-.01-1.246.534-1.255 1.223l-.242 15.932c-.01.686.536 1.25 1.218 1.26zM272.454 168.046c.22.645.925.988 1.574.764.64-.22.98-.93.756-1.567l-5.22-15.062c-.216-.644-.92-.987-1.566-.763-.65.22-.99.922-.766 1.57l5.222 15.06zM263.034 173.782c.435.527 1.205.607 1.737.18.53-.433.613-1.205.184-1.738l-10.056-12.365c-.435-.53-1.214-.613-1.742-.183-.528.428-.607 1.212-.18 1.74l10.058 12.365zM242.463 174.21l13.683 8.177c.584.355 1.345.164 1.695-.422s.16-1.343-.422-1.693l-13.685-8.18c-.585-.354-1.34-.165-1.692.42-.352.588-.162 1.342.423 1.697zM236.965 189.827l15.654 3.01c.667.128 1.316-.31 1.447-.986.126-.67-.313-1.318-.985-1.444l-15.654-3.01c-.67-.123-1.32.315-1.446.988-.128.667.31 1.317.983 1.443zM527.37 202.188c-2.084 3.104-3.44 6.54-4.056 10.09l-4.533.044.103 9.565 4.533-.05c.69 3.53 2.116 6.944 4.27 10l-3.172 3.237 6.83 6.696 3.17-3.244c3.103 2.083 6.544 3.438 10.09 4.056l.05 4.535 9.56-.102-.047-4.537c2.604-.506 5.143-1.418 7.524-2.722.846-.46 1.677-.98 2.475-1.546l3.242 3.174 6.69-6.833-3.24-3.17c2.086-3.103 3.438-6.542 4.05-10.087l4.537-.053-.104-9.558-4.53.047c-.69-3.533-2.116-6.945-4.267-10.002l3.17-3.242-6.834-6.688-3.17 3.242c-3.102-2.087-6.544-3.44-10.09-4.058l-.046-4.527-9.562.097.046 4.538c-2.604.506-5.147 1.417-7.52 2.722-.85.464-1.676.975-2.48 1.542l-3.237-3.17-6.69 6.832 3.24 3.172zm7.924 1.07c1.37-1.4 2.9-2.545 4.53-3.44 7.272-3.985 16.58-2.952 22.814 3.145 7.633 7.477 7.762 19.715.292 27.35-1.373 1.396-2.9 2.542-4.53 3.435-7.275 3.987-16.586 2.956-22.816-3.147-7.632-7.47-7.763-19.716-.29-27.343zM488.13 191.043c.484 2.463 1.48 4.847 2.98 6.982l-2.212 2.262 4.772 4.673 2.217-2.262c2.164 1.46 4.572 2.406 7.045 2.833l.036 3.17 6.682-.073-.034-3.166c1.82-.354 3.592-.992 5.255-1.9.594-.326 1.172-.685 1.73-1.08l2.264 2.214 4.675-4.773-2.265-2.215c1.458-2.165 2.4-4.57 2.833-7.046l3.168-.037-.07-6.68-3.167.03c-.487-2.463-1.48-4.85-2.985-6.984l2.218-2.257-4.773-4.68-2.22 2.262c-2.16-1.454-4.568-2.402-7.044-2.833l-.034-3.167-6.68.072.033 3.165c-1.82.362-3.595.992-5.257 1.908-.592.323-1.17.685-1.73 1.08l-2.265-2.217-4.67 4.774 2.265 2.212c-1.46 2.166-2.405 4.573-2.838 7.048l-3.167.034.074 6.685 3.163-.034zm8.298-12.984c.96-.984 2.024-1.78 3.168-2.406 5.08-2.786 11.583-2.063 15.94 2.197 5.332 5.225 5.42 13.777.203 19.107-.96.977-2.026 1.782-3.166 2.405-5.083 2.782-11.587 2.066-15.94-2.202-5.332-5.217-5.422-13.775-.206-19.1z"/></g><path fill-rule="evenodd" clip-rule="evenodd" fill="#013C5C" d="M194.648 365.282l-64.084.11c-12.41.02-22.547 10.195-22.525 22.605l.19 110.63c.024 12.41 10.194 22.548 22.606 22.527l64.084-.11c12.41-.024 22.546-10.196 22.525-22.605l-.194-110.633c-.02-12.41-10.192-22.546-22.602-22.525z"/><path fill-rule="evenodd" clip-rule="evenodd" fill="#70DCE5" d="M209.15 378.318l-93.044.162c-.18 0-.33.148-.328.33L116 506.482c0 .183.15.33.33.33l93.046-.16c.18-.003.33-.15.33-.33l-.224-127.676c0-.18-.148-.328-.33-.328z"/><path fill-rule="evenodd" clip-rule="evenodd" fill="#fff" d="M201.238 389.27l-77.182.136c-.15 0-.272.123-.27.273l.182 105.906c0 .15.124.272.273.27l77.184-.133c.15 0 .272-.12.272-.272l-.186-105.908c0-.15-.12-.27-.272-.27z"/><path fill="#D1D1D1" d="M197.9 399.37l.042-2-3.007-.06.05-2.535-2-.04-.05 2.534-2.71-.056.01-.65-1.998-.04-.014.65-29.4-.59-.04 2 29.4.59-.343 17.09-20.21-.407-.04 1.998 20.207.407-.66 32.878-17.382-.35-.04 2 17.38.35-.484 24.158-31.286-.63-.038 2 31.284.628-.033 1.595 2 .038.032-1.59 2.71.053-.05 2.537 2 .04.05-2.536 1.123.023.04-2-1.12-.02 1.57-78.126 3.008.064zm-6.577 78.024l-2.713-.056.485-24.158.414.01.04-2-.414-.01.662-32.877.414.008.04-1.997-.414-.01.344-17.088 2.714.055-1.573 78.124z"/><g><path fill="#2EBCBC" d="M162.61 464.62l-13.917.046-.015-4.506 13.917-.047z"/><path fill="#70DCE5" d="M155.157 440.917c-13.418.045-24.26 10.764-24.21 23.945.01 3.063.614 5.985 1.696 8.67 3.5-8.897 12.277-15.227 22.58-15.26 10.3-.033 19.122 6.237 22.688 15.114 1.062-2.692 1.645-5.617 1.635-8.68-.048-13.183-10.97-23.832-24.388-23.79zM161.43 459.057c7.536 1.927 13.658 7.305 16.48 14.33 1.062-2.692 1.645-5.617 1.635-8.68-.042-11.075-7.76-20.36-18.182-23.018l.066 17.367z"/><path fill="#E5E5E5" d="M140.116 433.202c.042 11.25 2.503 21.535 6.55 29.5 2.7-.848 5.578-1.317 8.566-1.326s5.87.44 8.58 1.273c3.984-7.993 6.368-18.295 6.33-29.544-.068-17.87-6.23-33.32-15.167-40.88-8.88 7.618-14.926 23.107-14.86 40.976z"/><path fill="#2EBCBC" d="M143.96 409.543l-.682 2.07s12.838-1.47 23.848.158l-1.007-2.298s-14.792-1.753-22.16.07z"/><path fill="#70DCE5" d="M151.993 456.505c.028 7.433 1.36 13.862 3.285 17.015 1.9-3.165 3.186-9.603 3.158-17.034-.026-7.432-1.362-13.863-3.285-17.015-1.898 3.167-3.183 9.604-3.157 17.035zM155.19 473.364c.03.05.06.107.087.155 1.9-3.166 3.186-9.604 3.158-17.035-.026-7.432-1.362-13.863-3.285-17.015-.028.05-.056.107-.086.155l.126 33.74zM143.96 409.543c3.607-.248 7.304-.39 11.08-.4 3.773-.014 7.47.105 11.08.33-2.678-7.342-6.538-13.35-11.145-17.247-4.578 3.926-8.392 9.958-11.015 17.317zM155.167 418.333l-.093-.002c-1.776.008-3.445.693-4.702 1.933-1.252 1.24-1.94 2.883-1.934 4.63.014 3.553 2.97 6.476 6.59 6.514h.094c3.67-.012 6.645-2.954 6.63-6.562-.01-3.552-2.966-6.477-6.585-6.512z"/><path fill="#fff" d="M155.08 419.92c-2.782.007-5.034 2.234-5.024 4.966.01 2.73 2.28 4.942 5.06 4.932 2.78-.01 5.032-2.235 5.02-4.966-.008-2.73-2.28-4.942-5.057-4.933z"/></g><g fill-rule="evenodd" clip-rule="evenodd"><path fill="#2C577D" d="M73.998 439.93l.082 13.793c.003.534-.433.627-.968.208l-3.897-3.043c-.536-.42-.977-1.2-.98-1.732l-.08-13.792c-.003-.533.432-.63.967-.21l3.898 3.047c.534.418.975 1.196.978 1.73z"/><path fill="#fff" d="M75.134 443.147l.112 19.087c.005.738-.596 1.346-1.333 1.35l-5.37.032c-.737.005-1.344-.597-1.35-1.334l-.11-19.088c-.005-.738.595-1.345 1.332-1.35l5.37-.032c.737-.003 1.345.597 1.35 1.335zM80.85 453.993l.377 63.84c.01 1.775-1.433 3.234-3.208 3.245l-12.904.077c-1.773.01-3.234-1.432-3.245-3.208l-.376-63.84c-.02-3.68 4.16-6.137 5.34-6.144l8.604-.05c1.183-.008 5.39 2.398 5.412 6.08z"/><path fill="#58D6D6" d="M83.41 456.265l.35 59.27c.008 1.257-1.014 2.29-2.27 2.297l-19.88.117c-1.256.007-2.292-1.015-2.3-2.272l-.347-59.27c-.01-1.258 1.012-2.292 2.27-2.298l19.88-.117c1.256-.008 2.29 1.013 2.297 2.272z"/><path fill="#72F4F7" d="M59.31 514.65l-.336-57.25 24.448-.143.337 57.25z"/><path fill="#58D6D6" d="M83.11 399.54l.13 22.004c.008 1.26-1.015 2.29-2.27 2.3l-19.88.116c-1.26.008-2.292-1.014-2.3-2.27l-.13-22.01c-.006-1.255 1.016-2.29 2.273-2.296l19.88-.118c1.257-.006 2.29 1.015 2.298 2.273z"/><path fill="#72F4F7" d="M80.827 418.208l-.124-21.128c-.006-1.012-.837-1.834-1.85-1.827l-15.985.095c-1.012.006-1.833.838-1.83 1.846l.127 21.13c.006 1.01.837 1.833 1.85 1.826L79 420.055c1.01-.005 1.833-.836 1.827-1.847z"/></g><g fill-rule="evenodd" clip-rule="evenodd"><path fill="#013C5C" d="M51.257 605.168l.734 86.248c.145 16.704 13.925 30.25 30.628 30.11l148.896-1.27c16.702-.14 30.25-13.923 30.11-30.624l-.733-86.25c-.145-16.702-13.924-30.25-30.63-30.11l-148.893 1.27c-16.702.14-30.25 13.924-30.11 30.626z"/><path fill="#70DCE5" d="M68.67 585.53l1.066 125.226c.002.244.2.44.445.44l171.834-1.465c.243 0 .44-.2.44-.445l-1.067-125.226c0-.245-.205-.44-.448-.438l-171.832 1.46c-.244.005-.44.204-.438.448z"/><path fill="#5085A1" d="M56.673 632.124l.274 32.248c.008.873.73 1.583 1.604 1.573.875-.004 1.584-.727 1.575-1.602l-.27-32.243c-.01-.875-.732-1.584-1.606-1.578-.875.007-1.583.73-1.577 1.602z"/><path fill="#fff" d="M220.7 705.263l-128.827 1.095-.994-116.863 128.825-1.095z"/><path fill="#58BFAC" d="M219.752 594.082l-128.826 1.095-.048-5.677 128.826-1.095z"/><path fill="#97E5D7" d="M185.38 606.474l-59.956.516-.074-8.645 59.956-.516z"/><path fill="#5896CC" d="M220.122 640.122l-128.83 1.095-.2-23.823L219.92 616.3z"/><path fill="#97E5D7" d="M195.163 613.39l-79.34.674-.03-3.623 79.34-.673z"/><path fill="#58BFAC" d="M131.655 664.916l-32.35.275-.163-19.255 32.35-.275z"/><path fill="#97E5D7" d="M172.127 664.562l-32.35.275-.163-19.255 32.35-.275zM212.56 664.217l-32.347.275-.164-19.257 32.347-.275z"/><path fill="#58BFAC" d="M220.69 705.26l-128.824 1.095-.088-10.388 128.824-1.095z"/><path fill="#91BDE3" d="M131.727 671.175l-32.348.275-.032-3.623 32.348-.275zM131.76 677.405l-32.348.275-.03-3.626 32.347-.275zM131.833 683.624l-32.35.275-.03-3.622 32.35-.275zM120.002 689.955l-20.482.174-.03-3.624 20.48-.174zM172.14 670.836l-32.35.275-.03-3.624 32.35-.275zM172.214 677.056l-32.35.275-.03-3.622 32.35-.275zM172.288 683.274l-32.35.275-.03-3.623 32.35-.275zM160.468 689.6l-20.48.175-.03-3.62 20.48-.175zM212.575 670.492l-32.35.275-.03-3.623 32.35-.275zM212.647 676.71l-32.35.275-.03-3.62 32.35-.276zM212.68 682.94l-32.348.276-.03-3.623 32.346-.275zM200.9 689.257l-20.48.174-.03-3.62 20.48-.174z"/><path fill="#5085A1" d="M252.488 641.74c2.67-.02 4.854 2.13 4.88 4.8.023 2.674-2.128 4.858-4.8 4.88-2.672.025-4.857-2.123-4.88-4.797-.023-2.67 2.124-4.857 4.8-4.882z"/><g fill="#fff"><path d="M95.825 629.287l.025 2.852-2.33-2.832 2.28-2.87zM215.424 628.27l.022 2.85 2.282-2.872-2.33-2.83z"/></g></g><path fill="#58D6D6" d="M284.927 550.575l-1.64 163.744 251.14-.285 1.64-163.743z"/><path fill="#fff" d="M295.73 551.816l-1.612 160.98 112.793-.127 1.613-160.982z"/><path fill="#726657" d="M402.32 686.173c-1.61.002-2.932 1.347-2.947 2.995-.017 1.653 1.275 2.99 2.89 2.99 1.613-.003 2.934-1.344 2.952-2.996.017-1.65-1.28-2.99-2.894-2.99z"/><path fill="#8C8E90" d="M404.372 687.04c.2.415.317.874.313 1.368-.017 1.648-1.34 2.993-2.955 2.994-.8.002-1.52-.33-2.048-.86.48.956 1.45 1.616 2.58 1.616 1.614-.003 2.935-1.344 2.953-2.996.01-.83-.318-1.584-.843-2.12z"/><path fill="#726657" d="M402.443 674.177c-1.615.002-2.935 1.344-2.95 2.995-.017 1.648 1.276 2.988 2.89 2.986s2.936-1.346 2.953-2.995c.017-1.65-1.28-2.987-2.893-2.986z"/><path fill="#8C8E90" d="M404.492 675.04c.2.413.318.877.313 1.373-.018 1.65-1.34 2.987-2.954 2.99-.802.002-1.522-.33-2.046-.864.478.962 1.448 1.618 2.578 1.618 1.613-.002 2.936-1.346 2.953-2.995.01-.83-.317-1.582-.843-2.122z"/><path fill="#726657" d="M402.563 662.18c-1.614 0-2.933 1.344-2.95 2.993-.017 1.653 1.276 2.99 2.89 2.987 1.613 0 2.937-1.343 2.954-2.996.017-1.65-1.28-2.987-2.894-2.985z"/><path fill="#8C8E90" d="M404.612 663.043c.2.41.32.875.313 1.37-.017 1.65-1.34 2.99-2.953 2.99-.804 0-1.523-.327-2.05-.86.48.96 1.452 1.617 2.58 1.617 1.614 0 2.938-1.343 2.955-2.996.01-.828-.32-1.58-.845-2.12z"/><path fill="#726657" d="M402.684 650.18c-1.616.002-2.935 1.345-2.95 2.992-.017 1.652 1.272 2.99 2.89 2.99 1.614 0 2.936-1.344 2.954-2.996.015-1.65-1.28-2.987-2.894-2.985z"/><path fill="#8C8E90" d="M404.732 651.045c.198.413.318.876.313 1.373-.02 1.648-1.34 2.988-2.955 2.99-.802 0-1.522-.332-2.047-.866.48.964 1.448 1.62 2.578 1.62 1.616 0 2.938-1.344 2.956-2.996.008-.828-.318-1.58-.844-2.12z"/><path fill="#726657" d="M402.803 638.182c-1.613.002-2.932 1.344-2.947 2.995-.02 1.65 1.273 2.987 2.89 2.986 1.613-.003 2.935-1.343 2.952-2.993.016-1.65-1.28-2.988-2.895-2.988z"/><path fill="#8C8E90" d="M404.854 639.046c.2.414.317.878.313 1.372-.02 1.648-1.342 2.988-2.955 2.99-.8 0-1.52-.33-2.05-.86.482.958 1.453 1.617 2.583 1.615 1.614-.003 2.936-1.343 2.953-2.993.006-.83-.32-1.58-.844-2.124z"/><path fill="#726657" d="M402.924 626.185c-1.614.002-2.933 1.342-2.95 2.995-.015 1.648 1.275 2.985 2.89 2.983 1.614 0 2.938-1.34 2.952-2.99.017-1.652-1.277-2.99-2.892-2.988z"/><path fill="#8C8E90" d="M404.973 627.052c.2.41.318.874.313 1.368-.016 1.648-1.34 2.992-2.953 2.992-.804.002-1.52-.33-2.05-.863.48.96 1.452 1.614 2.58 1.613 1.615 0 2.94-1.34 2.953-2.99.008-.83-.32-1.583-.843-2.12z"/><path fill="#726657" d="M403.043 614.188c-1.614.002-2.933 1.34-2.948 2.99-.018 1.65 1.273 2.992 2.89 2.99 1.613 0 2.935-1.345 2.952-2.996.015-1.65-1.28-2.985-2.894-2.984z"/><path fill="#8C8E90" d="M405.094 615.054c.2.407.317.875.31 1.37-.016 1.647-1.338 2.985-2.95 2.987-.803 0-1.524-.325-2.05-.86.48.96 1.45 1.62 2.58 1.62 1.614 0 2.936-1.346 2.953-2.997.008-.828-.32-1.584-.843-2.12z"/><path fill="#726657" d="M403.163 602.188c-1.613.002-2.935 1.344-2.95 2.995-.015 1.65 1.275 2.987 2.89 2.986 1.615-.003 2.938-1.345 2.954-2.993.015-1.652-1.28-2.99-2.894-2.99z"/><path fill="#8C8E90" d="M405.214 603.052c.2.413.315.877.312 1.372-.016 1.648-1.34 2.99-2.954 2.99-.802 0-1.522-.327-2.047-.86.48.958 1.45 1.616 2.58 1.615 1.613-.003 2.936-1.345 2.952-2.993.007-.833-.32-1.585-.843-2.125z"/><path fill="#726657" d="M403.284 590.19c-1.615 0-2.934 1.343-2.95 2.993-.016 1.65 1.275 2.99 2.89 2.988 1.614-.002 2.938-1.344 2.952-2.993.017-1.652-1.28-2.988-2.892-2.988z"/><path fill="#8C8E90" d="M405.332 591.055c.2.412.318.877.313 1.372-.017 1.65-1.34 2.99-2.954 2.99-.8 0-1.52-.33-2.046-.864.48.962 1.45 1.62 2.58 1.62 1.613-.004 2.937-1.346 2.95-2.995.01-.833-.317-1.58-.842-2.123z"/><path fill="#726657" d="M403.404 578.193c-1.613 0-2.934 1.345-2.95 2.993-.017 1.65 1.274 2.986 2.89 2.985 1.614 0 2.938-1.34 2.955-2.99.013-1.648-1.282-2.99-2.896-2.987z"/><path fill="#8C8E90" d="M405.454 579.06c.2.412.317.876.313 1.368-.017 1.65-1.343 2.99-2.955 2.99-.803 0-1.522-.327-2.046-.858.477.957 1.447 1.612 2.577 1.612 1.614-.002 2.938-1.342 2.955-2.992.008-.826-.32-1.582-.844-2.12z"/><path fill="#726657" d="M403.523 566.194c-1.614.003-2.93 1.345-2.95 2.993-.018 1.65 1.275 2.99 2.892 2.99 1.613-.005 2.938-1.346 2.954-2.997.012-1.647-1.283-2.987-2.897-2.986z"/><path fill="#8C8E90" d="M405.573 567.06c.2.412.316.874.313 1.37-.017 1.648-1.34 2.993-2.954 2.992-.8.002-1.52-.33-2.048-.862.48.96 1.45 1.618 2.58 1.617 1.613-.004 2.938-1.345 2.954-2.996.008-.827-.32-1.578-.845-2.12z"/><path fill="#343434" d="M410.488 567.935l-2.707.004-.007.833 2.706-.005c.19 0 .402.33.397.762-.005.436-.222.76-.412.76l-2.705.005-.01.835 2.708-.003c.682-.002 1.227-.698 1.235-1.597.013-.895-.52-1.596-1.205-1.595zM405.057 570.296c-.192 0-.405-.323-.4-.76.002-.434.224-.76.417-.762l2.7-.002.008-.834-2.7.004c-.69 0-1.232.7-1.244 1.594-.007.9.523 1.597 1.213 1.597l2.7-.004.012-.836-2.705.002zM410.37 579.852l-2.708.003-.008.836 2.707-.002c.192 0 .403.328.397.76-.005.437-.222.763-.412.762l-2.705.004-.01.832h2.707c.684 0 1.23-.7 1.238-1.6.01-.895-.523-1.596-1.206-1.594zM404.94 582.22c-.195-.003-.41-.328-.404-.767.006-.432.224-.758.418-.758l2.7-.005.008-.836-2.7.004c-.69 0-1.232.702-1.24 1.596-.012.898.52 1.6 1.21 1.597l2.7-.005.01-.832-2.703.006zM410.25 591.77l-2.706.003-.01.835 2.707-.002c.19 0 .4.324.398.76-.003.435-.222.765-.412.764l-2.707.004-.01.832h2.705c.686-.004 1.23-.703 1.24-1.6.01-.895-.522-1.595-1.205-1.595zM404.82 594.137c-.194 0-.407-.328-.405-.762.006-.436.225-.763.42-.763l2.7-.004.01-.835-2.703.007c-.688 0-1.232.7-1.242 1.595-.007.897.52 1.595 1.21 1.596l2.7-.004.01-.832-2.7.003zM410.132 603.687l-2.707.006-.01.834 2.707-.004c.19 0 .4.328.398.763-.005.434-.22.762-.413.762l-2.707.004-.01.832 2.708-.002c.685 0 1.23-.7 1.24-1.596.008-.898-.525-1.598-1.206-1.6zM404.7 606.055c-.195 0-.408-.328-.403-.762.004-.436.225-.764.418-.764l2.7-.004.01-.834-2.7.003c-.69 0-1.235.702-1.244 1.6-.008.893.522 1.59 1.21 1.592l2.7-.004.01-.832-2.7.005zM410.012 615.608l-2.706.003-.01.835 2.708-.002c.19 0 .4.325.398.76-.007.435-.226.76-.414.76l-2.706.005-.01.836 2.707-.004c.684 0 1.228-.7 1.237-1.598.01-.895-.524-1.597-1.205-1.594zM404.58 617.97c-.193.002-.407-.323-.4-.76 0-.434.22-.762.415-.76l2.702-.005.01-.834-2.703.004c-.688 0-1.234.703-1.24 1.597-.013.898.52 1.597 1.208 1.596l2.7-.002.01-.836-2.702.003zM409.89 627.526l-2.704.002-.01.834h2.707c.19-.002.4.324.4.76-.007.435-.225.76-.415.762l-2.706.002-.008.835 2.707-.002c.683 0 1.23-.7 1.237-1.598.01-.894-.52-1.595-1.206-1.594zM404.46 629.89c-.193 0-.407-.326-.403-.76.007-.436.227-.765.42-.764l2.7-.004.01-.834-2.702.003c-.688.002-1.235.704-1.243 1.6-.01.896.523 1.594 1.212 1.593l2.7-.002.01-.834-2.703.004zM409.77 639.444h-2.705l-.008.84 2.704-.003c.193 0 .404.325.4.76-.003.436-.222.76-.412.76l-2.706.004-.008.836 2.705-.003c.682-.003 1.23-.702 1.237-1.598.01-.895-.52-1.6-1.206-1.596zM404.34 641.808c-.194 0-.406-.325-.4-.76.004-.434.223-.763.417-.76l2.7-.005.01-.838-2.7.004c-.69 0-1.234.703-1.245 1.597-.007.896.523 1.596 1.212 1.596l2.702-.003.008-.836-2.703.004zM409.653 651.362l-2.706.003-.007.836 2.705-.002c.19 0 .4.324.396.76-.003.437-.22.762-.41.764l-2.708.002-.008.835 2.706-.004c.683-.002 1.23-.702 1.24-1.597.008-.9-.522-1.6-1.207-1.598zM404.223 653.728c-.194 0-.407-.325-.402-.764.003-.435.224-.76.42-.76l2.7-.003.008-.835-2.7.004c-.69 0-1.236.7-1.243 1.597-.01.895.52 1.596 1.208 1.595l2.703-.003.008-.836-2.7.004zM409.534 663.282h-2.707l-.008.837 2.706-.003c.188 0 .4.323.396.758-.006.437-.223.764-.413.765H406.8l-.006.836 2.704-.004c.685 0 1.232-.698 1.24-1.597.01-.896-.524-1.596-1.206-1.593zM404.102 665.646c-.19-.002-.405-.326-.4-.764.003-.434.223-.76.418-.76l2.7-.004.008-.836-2.7.004c-.69 0-1.233.704-1.243 1.6-.01.895.52 1.592 1.21 1.594l2.703-.005.006-.835-2.702.006zM403.983 677.565c-.194 0-.41-.326-.402-.764.005-.434.224-.758.418-.76l2.702-.003.01-.837-2.704.003c-.688.002-1.232.706-1.24 1.6-.01.897.52 1.594 1.21 1.594l2.7-.004.007-.835-2.7.007zM409.414 675.198l-2.705.003-.01.838 2.706-.002c.19-.002.402.322.396.76 0 .438-.22.762-.41.764h-2.71l-.005.834 2.705-.003c.685 0 1.23-.698 1.238-1.595.01-.895-.524-1.598-1.206-1.597zM403.864 689.48c-.193 0-.407-.325-.403-.76.004-.436.225-.762.42-.76l2.7-.003.01-.837-2.703.003c-.688 0-1.232.7-1.242 1.598-.01.898.52 1.595 1.21 1.596l2.7-.002.01-.836-2.7.003zM409.296 687.12h-2.706l-.01.838 2.705-.003c.19 0 .403.324.4.758-.006.438-.223.764-.414.764l-2.706.002-.01.835 2.708-.004c.686 0 1.23-.7 1.24-1.598.01-.895-.523-1.595-1.206-1.593z"/><path fill="#5E533B" d="M306.637 577.083l-.003.247 92.16-.103.002-.247zM306.58 582.795l-.003.245 92.16-.102v-.246zM306.52 588.452h92.16v.245h-92.16zM306.464 594.162h92.158v.243h-92.158zM306.408 599.874h92.158v.245h-92.158zM306.35 605.58h92.156v.247H306.35zM306.294 611.343l-.003.246 92.157-.105.004-.246zM306.236 616.998h92.16v.25h-92.16zM306.18 622.762l-.004.24 92.16-.103.002-.244zM306.123 628.47l-.003.25 92.158-.107.003-.245zM306.065 634.18l-.003.244 92.158-.104.003-.247zM306.007 639.838h92.157v.243h-92.157zM305.95 645.6l-.002.244 92.158-.103.003-.244zM305.895 651.305l-.004.25 92.158-.103.004-.25zM305.837 657.016l-.004.248 92.157-.104.003-.248zM305.778 662.675h92.156v.242h-92.156zM305.72 668.386h92.16v.242h-92.16zM305.666 674.144l-.003.247 92.158-.103.004-.248zM305.607 679.855l-.002.246 92.158-.104.004-.246zM305.55 685.565v.247l92.155-.104.004-.244zM323.177 691.21h74.474v.246h-74.473z"/><path fill="#00907E" d="M532.07 558.362c.037-3.764-3.417-6.81-7.717-6.806l-2.76.003-.367 37.057 2.757-.005c4.3-.004 7.815-3.06 7.854-6.818l.233-23.432z"/><path fill="#DF3428" d="M531.806 584.776c.037-3.765-3.415-6.81-7.715-6.805l-2.76.004-.368 37.056 2.757-.004c4.3-.005 7.813-3.058 7.85-6.82l.236-23.43z"/><path fill="#FFAE00" d="M531.54 611.02c.04-3.763-3.415-6.81-7.712-6.807l-2.76.006-.37 37.054 2.76-.004c4.298-.005 7.81-3.06 7.85-6.82l.232-23.43z"/><path fill="#BCBDBF" d="M410.343 551.688l-1.613 160.98 112.79-.128 1.614-160.982z"/><path fill="#fff" d="M410.343 551.688l-1.613 160.98 83.368-.096 29.618-19.53 1.418-141.484z"/><path fill="#C8CACD" d="M506.292 690.372c1.4 11.717-14.194 22.2-14.194 22.2l29.618-19.53c-9.944 3.422-15.424-2.67-15.424-2.67z"/><path fill="#726657" d="M413.85 686.16c-1.616 0-2.94 1.345-2.957 2.995-.016 1.65 1.28 2.99 2.896 2.988 1.612-.002 2.933-1.343 2.95-2.994.015-1.652-1.28-2.994-2.89-2.99z"/><path fill="#8C8E90" d="M414.336 691.39c-1.616.002-2.91-1.34-2.896-2.988.006-.493.133-.954.34-1.37-.534.54-.878 1.293-.887 2.124-.016 1.65 1.28 2.99 2.896 2.988 1.128 0 2.112-.664 2.61-1.62-.535.53-1.263.864-2.064.865z"/><path fill="#726657" d="M413.97 674.162c-1.617.002-2.94 1.345-2.955 2.996-.018 1.65 1.278 2.988 2.895 2.984 1.61 0 2.934-1.34 2.95-2.99.016-1.65-1.28-2.99-2.89-2.99z"/><path fill="#8C8E90" d="M414.457 679.39c-1.618 0-2.91-1.334-2.897-2.983.006-.497.13-.96.34-1.378-.534.546-.877 1.298-.885 2.13-.018 1.65 1.278 2.987 2.895 2.983 1.13.002 2.113-.66 2.61-1.623-.536.537-1.262.87-2.063.87z"/><path fill="#726657" d="M414.09 662.166c-1.616 0-2.94 1.344-2.955 2.993-.016 1.65 1.28 2.99 2.895 2.987 1.61-.003 2.933-1.343 2.95-2.995.018-1.648-1.28-2.99-2.89-2.986z"/><path fill="#8C8E90" d="M414.577 667.39c-1.615 0-2.912-1.333-2.896-2.983.006-.496.133-.96.34-1.372-.534.543-.876 1.295-.885 2.125-.016 1.65 1.28 2.99 2.895 2.988 1.13 0 2.113-.663 2.61-1.624-.534.536-1.263.864-2.063.867z"/><path fill="#726657" d="M414.21 650.166c-1.617.003-2.94 1.344-2.956 2.994-.018 1.652 1.28 2.99 2.896 2.987 1.61 0 2.933-1.342 2.95-2.993.016-1.65-1.28-2.99-2.89-2.988z"/><path fill="#8C8E90" d="M414.695 655.393c-1.614 0-2.91-1.333-2.894-2.983.005-.496.13-.958.34-1.373-.535.543-.878 1.295-.887 2.124-.018 1.653 1.28 2.99 2.896 2.988 1.128 0 2.112-.66 2.61-1.622-.533.53-1.264.865-2.065.867z"/><path fill="#726657" d="M414.33 638.17c-1.617.002-2.938 1.344-2.956 2.993-.014 1.65 1.28 2.987 2.896 2.986 1.61-.003 2.933-1.344 2.95-2.994s-1.28-2.988-2.89-2.987z"/><path fill="#8C8E90" d="M414.817 643.394c-1.617.004-2.912-1.335-2.897-2.983.006-.493.13-.96.34-1.372-.532.544-.877 1.296-.886 2.126-.014 1.65 1.28 2.987 2.896 2.986 1.13 0 2.112-.664 2.607-1.622-.532.533-1.26.863-2.06.866z"/><path fill="#726657" d="M414.45 626.17c-1.615.003-2.94 1.345-2.955 2.996-.016 1.65 1.278 2.986 2.895 2.984 1.61 0 2.934-1.343 2.95-2.99.018-1.652-1.278-2.99-2.89-2.99z"/><path fill="#8C8E90" d="M414.937 631.398c-1.613 0-2.91-1.338-2.895-2.988.005-.49.13-.955.34-1.37-.537.54-.88 1.295-.887 2.126-.016 1.65 1.278 2.986 2.895 2.984 1.13 0 2.113-.66 2.61-1.62-.533.534-1.263.868-2.063.868z"/><path fill="#726657" d="M414.57 614.174c-1.615.004-2.94 1.342-2.957 2.993-.014 1.65 1.282 2.99 2.896 2.99 1.61-.003 2.933-1.346 2.95-2.998.017-1.65-1.278-2.987-2.89-2.986z"/><path fill="#8C8E90" d="M415.056 619.397c-1.614 0-2.91-1.333-2.894-2.984.005-.49.13-.96.338-1.368-.533.54-.876 1.292-.887 2.122-.014 1.65 1.282 2.99 2.896 2.99 1.13-.003 2.114-.663 2.61-1.627-.533.533-1.263.866-2.064.867z"/><path fill="#726657" d="M414.69 602.174c-1.616.003-2.94 1.344-2.954 2.998-.018 1.647 1.277 2.986 2.895 2.984 1.612-.004 2.935-1.343 2.95-2.993.016-1.652-1.277-2.99-2.89-2.99z"/><path fill="#8C8E90" d="M415.178 607.4c-1.616.002-2.912-1.334-2.897-2.983.007-.496.133-.96.34-1.374-.532.54-.875 1.298-.883 2.13-.018 1.646 1.277 2.985 2.895 2.983 1.13 0 2.113-.663 2.61-1.623-.536.535-1.263.866-2.064.866z"/><path fill="#726657" d="M414.81 590.178c-1.615 0-2.938 1.34-2.953 2.993-.018 1.65 1.278 2.99 2.894 2.987 1.615 0 2.935-1.344 2.95-2.994.018-1.65-1.276-2.988-2.89-2.985z"/><path fill="#8C8E90" d="M415.297 595.403c-1.613 0-2.91-1.337-2.895-2.984.005-.497.13-.96.34-1.373-.536.542-.877 1.292-.886 2.124-.018 1.65 1.278 2.99 2.894 2.987 1.13 0 2.113-.66 2.612-1.624-.535.536-1.263.867-2.065.87z"/><path fill="#726657" d="M414.93 578.18c-1.615.002-2.937 1.347-2.953 2.996-.017 1.647 1.278 2.984 2.895 2.982 1.61-.002 2.933-1.344 2.95-2.99.016-1.65-1.28-2.99-2.89-2.988z"/><path fill="#8C8E90" d="M415.417 583.402c-1.614.004-2.912-1.332-2.896-2.98.007-.494.133-.96.342-1.37-.534.538-.878 1.294-.885 2.124-.017 1.647 1.278 2.984 2.895 2.982 1.13-.002 2.11-.657 2.612-1.62-.538.534-1.266.862-2.067.864z"/><path fill="#726657" d="M415.05 566.182c-1.615 0-2.937 1.344-2.954 2.994-.018 1.65 1.28 2.99 2.896 2.985 1.61 0 2.933-1.342 2.952-2.993.012-1.65-1.28-2.985-2.893-2.985z"/><path fill="#8C8E90" d="M415.536 571.408c-1.613.002-2.91-1.338-2.895-2.986.007-.496.133-.96.34-1.37-.532.542-.877 1.295-.885 2.124-.018 1.65 1.28 2.99 2.896 2.985 1.132 0 2.114-.66 2.61-1.622-.534.537-1.26.87-2.064.87z"/><path fill="#343434" d="M408.028 570.293c-.19 0-.402-.324-.4-.76.007-.435.225-.762.414-.762l2.705-.002.01-.835-2.707.003c-.683.002-1.23.703-1.24 1.597-.01.898.525 1.597 1.21 1.597l2.705-.005.01-.836-2.707.003zM413.455 567.93l-2.698.004-.01.835 2.7-.004c.195 0 .407.326.406.76-.006.436-.228.762-.42.762l-2.7.002-.01.836 2.7-.004c.69.002 1.236-.7 1.245-1.597.01-.894-.522-1.594-1.213-1.594zM413.336 579.85h-2.7l-.007.84 2.698-.004c.194 0 .408.326.404.76-.004.435-.226.762-.42.762l-2.7.002-.007.836 2.698-.004c.69 0 1.234-.7 1.244-1.598.01-.896-.523-1.596-1.21-1.595zM407.908 582.215c-.19 0-.403-.326-.398-.76.005-.437.223-.765.413-.765l2.706-.002.007-.838-2.704.005c-.687-.002-1.235.7-1.243 1.598-.01.896.525 1.595 1.21 1.595l2.706-.003.008-.836-2.706.005zM407.79 594.132c-.192 0-.404-.327-.398-.76.004-.436.223-.764.41-.764l2.708-.002.01-.833h-2.708c-.683.002-1.233.702-1.24 1.598s.523 1.597 1.207 1.596l2.706-.004.01-.83h-2.707zM413.22 591.77l-2.7.004-.01.833 2.697-.004c.195 0 .41.326.404.762 0 .435-.222.763-.417.763l-2.7.004-.008.83 2.7-.002c.688 0 1.234-.7 1.244-1.595.007-.898-.522-1.596-1.21-1.596zM407.67 606.05c-.19 0-.403-.327-.398-.76.004-.435.223-.766.412-.766l2.707-.002.01-.833h-2.705c-.687.002-1.235.702-1.244 1.6-.008.894.527 1.595 1.21 1.594l2.707-.003.008-.83h-2.706zM413.098 603.686l-2.7.004-.007.833 2.7-.004c.194 0 .408.328.405.764-.007.434-.228.762-.422.762l-2.7.004-.007.832 2.7-.005c.687.002 1.235-.7 1.244-1.594.01-.897-.523-1.6-1.212-1.597zM407.55 617.968c-.188 0-.404-.324-.398-.762.005-.433.225-.76.414-.76l2.705-.005.01-.834-2.705.004c-.687.002-1.234.704-1.242 1.597-.012.9.527 1.598 1.21 1.597l2.704-.004.008-.836-2.705.004zM412.978 615.605h-2.698l-.01.836h2.7c.194 0 .41.325.404.76-.003.436-.225.76-.42.762l-2.7.002-.008.836 2.7-.003c.69 0 1.234-.7 1.245-1.598.01-.894-.522-1.596-1.212-1.595zM412.858 627.52l-2.7.006-.01.833 2.7-.004c.196 0 .41.327.405.762-.003.436-.225.76-.42.76l-2.7.006-.006.833 2.7-.003c.687-.002 1.234-.7 1.243-1.596.01-.893-.52-1.596-1.212-1.597zM407.43 629.885c-.188 0-.402-.323-.398-.76.005-.435.224-.764.414-.763l2.704-.003.01-.834-2.707.002c-.685.002-1.23.704-1.242 1.6-.005.895.528 1.593 1.214 1.592l2.705-.003.006-.833h-2.705zM407.312 641.806c-.19 0-.403-.326-.4-.762.007-.435.224-.76.414-.76l2.706-.005.01-.837-2.706.003c-.686 0-1.232.702-1.244 1.6-.007.896.525 1.592 1.212 1.594l2.705-.004.01-.834-2.708.004zM412.74 639.438l-2.7.005-.01.836 2.7-.003c.196 0 .41.324.404.76-.004.436-.223.76-.42.76l-2.697.005-.01.834 2.7-.004c.687 0 1.235-.7 1.243-1.596.01-.894-.52-1.595-1.21-1.598zM412.62 651.358l-2.698.006-.01.833 2.7-.002c.194 0 .408.323.403.76-.004.436-.224.763-.42.763l-2.698.003-.01.836 2.7-.005c.69 0 1.234-.7 1.245-1.596.01-.895-.522-1.596-1.21-1.596zM407.193 653.725c-.19 0-.405-.326-.398-.762.003-.437.224-.76.414-.762l2.703-.003.01-.833-2.707.002c-.685 0-1.233.702-1.242 1.598-.01.896.524 1.595 1.21 1.595l2.705-.004.008-.835-2.705.005zM407.072 665.642c-.19 0-.4-.325-.396-.762.002-.433.22-.76.412-.76l2.704-.004.01-.836-2.707.002c-.684.003-1.232.706-1.24 1.6-.01.895.524 1.595 1.21 1.592h2.704l.007-.834-2.705.002zM412.5 663.275l-2.698.005-.01.836 2.7-.002c.195 0 .41.324.404.76-.003.437-.226.76-.42.76l-2.7.006-.008.834 2.7-.005c.69-.002 1.236-.7 1.244-1.598.01-.894-.522-1.595-1.21-1.597zM412.382 675.195l-2.7.004-.008.836 2.698-.004c.196 0 .41.324.405.76-.004.44-.225.763-.422.763l-2.697.004-.01.83 2.7-.002c.69 0 1.234-.698 1.244-1.597.01-.894-.52-1.595-1.21-1.595zM406.953 677.56c-.19 0-.402-.323-.398-.76.004-.436.224-.762.413-.763h2.706l.008-.838h-2.705c-.686.002-1.233.705-1.243 1.6-.01.897.527 1.595 1.21 1.594l2.706-.003.01-.83h-2.707zM412.264 687.114l-2.7.003-.01.836h2.7c.196-.002.408.32.405.756-.004.436-.227.763-.422.762l-2.7.004-.008.835 2.7-.003c.69 0 1.233-.7 1.245-1.597.008-.895-.524-1.597-1.21-1.596zM406.835 689.48c-.19-.002-.404-.327-.4-.764.005-.434.225-.76.414-.76l2.705-.004.01-.836-2.707.003c-.685.002-1.234.703-1.242 1.598-.01.898.525 1.595 1.208 1.594l2.707-.002.01-.835-2.705.004z"/><path fill="#5E533B" d="M419.563 576.957l-.003.247 92.157-.104.003-.248zM419.503 582.616h92.16v.246h-92.16zM419.448 588.376l-.002.245 92.156-.103.002-.246zM419.392 594.087l-.002.242 92.155-.106.004-.242zM419.333 599.743h92.156v.248h-92.157zM419.277 605.503l-.004.248 92.16-.103v-.25zM419.218 611.164h92.157v.246h-92.157zM419.16 616.87h92.157v.25H419.16zM419.104 622.635v.24l92.155-.103.004-.243zM419.047 628.345l-.003.246 92.16-.103.002-.247zM418.993 634.05l-.005.245 92.158-.105.003-.244zM418.936 639.765l-.004.24 92.157-.103.002-.242zM418.877 645.472l-.002.246 92.155-.105.003-.244zM418.82 651.18l-.003.248 92.157-.105.002-.25zM418.764 656.89l-.004.246 92.157-.105.002-.245zM418.704 662.547h92.155v.242h-92.156zM418.647 668.312l-.002.242 92.156-.104.005-.245zM418.592 674.016l-.005.246 92.158-.103.002-.25zM418.534 679.727l-.003.245 92.16-.1.002-.248zM418.475 685.387h92.16v.245h-92.16zM418.42 691.146l-.004.245 74.47-.083.004-.247z"/><path fill="#4C8EB4" d="M76.22 542.616c-.712-.003-1.28-.572-1.28-1.28s.57-1.273 1.284-1.272l5.104.006c.7 0 1.27.57 1.27 1.277s-.572 1.277-1.274 1.275l-5.105-.006z"/><path fill="#013C5C" d="M87.462 547.226c-4.61-.004-8.334-2.628-8.326-5.855.004-3.23 3.73-5.837 8.34-5.83l148.1.194c4.603.006 8.332 2.625 8.326 5.854-.004 3.228-3.738 5.84-8.343 5.834l-148.098-.196z"/><path fill="#F9A818" d="M95.903 548.72c-4.068-.004-7.365-3.308-7.36-7.378.006-4.073 3.31-7.365 7.38-7.36l132.96.178c4.07.003 7.364 3.305 7.36 7.377-.01 4.07-3.31 7.366-7.38 7.36l-132.96-.176z"/><path fill="#013C5C" d="M227.167 548.895l-9.084 4.242-39.98-.053s-2.26-1.135-3.677-2.84l33.168.046s5.682-7.366 1.16-16.73l18.71.026s4.523 7.943-.297 15.31z"/><path fill="#4C8EB4" d="M573.01 419.086c-.712-.004-1.28-.572-1.28-1.28.002-.706.572-1.274 1.284-1.272l5.104.006c.7 0 1.27.57 1.268 1.277 0 .707-.57 1.277-1.273 1.275l-5.104-.006z"/><path fill="#013C5C" d="M584.252 423.695c-4.61-.004-8.333-2.63-8.326-5.855.005-3.23 3.73-5.838 8.34-5.832l148.1.195c4.603.006 8.333 2.625 8.326 5.854-.004 3.227-3.737 5.84-8.343 5.834l-148.098-.195z"/><path fill="#f50" d="M592.693 425.19c-4.068-.005-7.364-3.31-7.36-7.38.006-4.072 3.31-7.365 7.38-7.36l132.96.18c4.07 0 7.364 3.304 7.36 7.376-.01 4.07-3.308 7.365-7.38 7.36l-132.96-.177z"/><path fill="#013C5C" d="M723.958 425.363l-9.085 4.242-39.978-.053s-2.262-1.135-3.678-2.838l33.168.045s5.682-7.368 1.158-16.73l18.71.025c.002.002 4.525 7.943-.295 15.308z"/><g fill-rule="evenodd" clip-rule="evenodd"><path fill="#FFAE00" d="M737.2 468.096l.082 25.89-159.763.512-.084-25.89z"/><g fill="#FFCD61"><path d="M728.762 488.427l.02 5.588-142.697.5-.02-5.59zM594.1 481.54l.042 12.945-3.04.01-.042-12.947zM604.044 481.48l.042 12.944-3.04.01-.043-12.944zM614.048 481.473l.042 12.944-3.043.01-.042-12.944zM624.024 481.442l.04 12.944-3.042.01-.04-12.944zM633.962 481.384l.043 12.944-3.043.01-.043-12.944zM643.937 481.352l.04 12.944-3.04.01-.04-12.944zM653.91 481.32l.042 12.945-3.04.01-.044-12.945zM663.916 481.312l.04 12.945-3.04.01-.04-12.945zM673.89 481.28l.04 12.944-3.04.01-.042-12.946zM683.86 481.247l.043 12.945-3.04.01-.04-12.945zM693.8 481.19l.044 12.945-3.04.01-.044-12.945zM703.81 481.182l.04 12.945-3.04.01-.04-12.946zM713.783 481.15l.04 12.944-3.04.01-.04-12.944zM723.72 481.093l.04 12.945-3.04.01-.042-12.944z"/></g></g><path fill="#FFAE00" d="M713.692 362.518c-2.357-.71-4.884-.494-7.112.61l-14.278 7.067c-.468.23-.66.775-.428 1.214.228.44.794.613 1.26.38l14.28-7.065c1.778-.88 3.795-1.056 5.672-.488 1.88.568 3.4 1.805 4.274 3.488.88 1.684 1.01 3.607.374 5.42-.64 1.814-1.972 3.297-3.75 4.178l-23.9 11.83c-2.765 1.366-6.126.352-7.49-2.262-1.362-2.614-.222-5.854 2.544-7.224l21.116-10.45c.883-.436 1.882-.522 2.814-.24.933.282 1.688.897 2.123 1.732.437.833.5 1.788.184 2.688-.316.898-.977 1.635-1.86 2.072l-19.896 9.848c-.465.23-.657.773-.428 1.214.23.44.794.61 1.26.38l19.896-9.846c1.334-.66 2.333-1.77 2.813-3.13.476-1.358.377-2.802-.28-4.063-.658-1.26-1.797-2.187-3.207-2.613-1.407-.426-2.916-.297-4.25.363l-21.115 10.45c-3.696 1.828-5.223 6.158-3.4 9.655 1.577 3.02 5.15 4.443 8.477 3.59.52-.133 1.03-.322 1.53-.57l23.902-11.828c2.23-1.104 3.9-2.962 4.7-5.234.8-2.27.633-4.686-.468-6.793-1.1-2.11-3.003-3.66-5.358-4.372z"/><path fill="#72F4F7" d="M603.033 257.15c2.357-.71 4.884-.494 7.112.61l14.278 7.067c.468.23.66.775.428 1.214-.227.443-.793.615-1.258.38l-14.28-7.063c-1.78-.88-3.796-1.056-5.673-.488-1.88.567-3.4 1.804-4.275 3.487-.88 1.684-1.01 3.607-.374 5.42.642 1.814 1.973 3.297 3.75 4.178l23.902 11.83c2.764 1.366 6.125.352 7.488-2.262 1.363-2.615.223-5.855-2.543-7.225l-21.116-10.45c-.882-.436-1.88-.522-2.813-.24-.933.282-1.688.897-2.123 1.732-.436.833-.5 1.788-.183 2.688.317.898.978 1.635 1.86 2.072l19.897 9.848c.465.23.657.773.428 1.214-.23.44-.794.61-1.26.38l-19.896-9.846c-1.335-.66-2.334-1.77-2.814-3.13-.477-1.358-.378-2.802.28-4.063.657-1.262 1.796-2.188 3.206-2.614 1.407-.427 2.916-.298 4.25.362l21.115 10.45c3.696 1.828 5.223 6.158 3.4 9.655-1.577 3.02-5.15 4.443-8.477 3.59-.52-.133-1.03-.322-1.53-.57l-23.902-11.828c-2.23-1.105-3.9-2.963-4.7-5.235-.8-2.27-.633-4.686.468-6.793 1.1-2.11 3.003-3.66 5.357-4.372z"/><path fill="#f50" d="M711.537 335.034c-2.337-.774-4.868-.626-7.127.418l-14.466 6.677c-.473.217-.678.756-.46 1.2.218.45.78.637 1.25.416l14.466-6.676c1.803-.832 3.82-.952 5.685-.334 1.862.62 3.347 1.896 4.178 3.603.83 1.706.91 3.633.226 5.428-.69 1.796-2.06 3.242-3.863 4.073l-24.213 11.18c-2.798 1.29-6.13.186-7.424-2.464-1.29-2.652-.062-5.86 2.74-7.153l21.39-9.874c.895-.413 1.896-.472 2.82-.164.925.307 1.66.942 2.074 1.79.413.844.45 1.8.11 2.69-.34.89-1.02 1.608-1.916 2.02l-20.156 9.306c-.47.217-.678.756-.46 1.202s.777.632 1.25.414l20.155-9.302c1.35-.625 2.38-1.708 2.895-3.054.515-1.345.455-2.79-.168-4.068-.624-1.28-1.734-2.236-3.132-2.7s-2.91-.376-4.26.248l-21.394 9.875c-3.742 1.727-5.385 6.014-3.658 9.56 1.494 3.062 5.026 4.58 8.374 3.817.524-.118 1.04-.293 1.548-.528l24.213-11.175c2.262-1.043 3.98-2.855 4.84-5.105.86-2.25.76-4.667-.283-6.803-1.042-2.14-2.902-3.743-5.235-4.518z"/><path opacity=".2" fill="#113E44" d="M455.607 179.02c.1.143.2.287.295.43.2.294.396.588.59.886.123.19.24.38.36.573.25.397.494.8.734 1.205.183.31.364.62.54.935.12.212.233.426.348.64.16.296.318.59.472.89.107.206.212.416.316.625.164.33.323.66.48.994.083.18.17.358.252.54.233.513.46 1.032.68 1.557 2.17-5.676 3.33-11.833 3.242-18.265-.01-.66-.036-1.313-.07-1.966-.005-.11-.01-.22-.017-.33-.04-.63-.09-1.256-.15-1.878-.01-.108-.022-.215-.034-.324-.066-.646-.143-1.29-.235-1.928v-.004c-.094-.65-.204-1.294-.323-1.936l-.042-.234c-.12-.625-.253-1.245-.394-1.862-.018-.083-.037-.165-.058-.247-.305-1.29-.66-2.56-1.064-3.81-.013-.034-.022-.07-.035-.106-.202-.62-.417-1.237-.645-1.848-.02-.05-.038-.1-.056-.152-.713-1.9-1.54-3.75-2.47-5.533-.01-.013-.016-.026-.022-.04-3.877-7.405-9.57-13.732-16.497-18.417 1.217-8.14 1.81-16.7 1.69-25.53-.228-16.21-2.838-31.444-7.25-44.79.155.02.313.04.465.062l-2.042-4.536c-4.688-12.56-11.024-23.23-18.486-31.15-.03-.034-.062-.07-.092-.1-.498-.526-1-1.036-1.507-1.537-.08-.08-.158-.164-.24-.243-.475-.465-.956-.913-1.44-1.356-.11-.1-.218-.208-.328-.308-.592-.534-1.19-1.052-1.793-1.552-.59.516-1.172 1.048-1.746 1.597-.126.12-.25.247-.372.368-.453.438-.903.88-1.348 1.34-.102.103-.198.212-.298.316-.47.49-.938.99-1.396 1.503-.053.058-.105.12-.156.18-15.49 17.42-25.48 47.26-25.008 81.05.124 8.832.955 17.373 2.4 25.478-12.91 9.253-21.21 24.303-20.975 41.192.09 6.43 1.42 12.556 3.747 18.172 4.765-12.478 14.453-22.608 26.77-28.085.783 1.724 1.593 3.416 2.443 5.05 1.376-.45 2.775-.85 4.194-1.203l.073 5.292 8.212-.11c1.283 8.008 3.343 14.545 5.834 18.54 2.38-4.06 4.26-10.65 5.32-18.69l9.85-.133-.067-4.878c.868.215 1.73.444 2.584.697.8-1.647 1.557-3.352 2.29-5.087 8.7 3.585 16.185 9.466 21.648 16.89.05.068.104.137.154.207.23.313.453.632.675.953z"/><path fill="#FDFDFD" d="M440.42 258.718c.207-.474.403-.95.58-1.432 3.456-9.435-1.497-23.21-11.49-23.57 12.644-1.775 20.85-11.668 16.5-26.115-4.032-13.386-15.55-14.902-23.586-11.294 8.343-5.57 5.565-21.907-1.81-27.48-6.064-4.584-14.863-2.927-20.535-.745v-2.43c-6.704-5.6-20.618 4.96-22.526 12.172-1.825 6.9 1.908 13.995 6.266 18.357-23.917-17.16-46.02 9.612-29.86 31.995-7.99-3.93-18.604 5.708-21.034 13.446-1.675 5.337-2.157 11.366-1.31 17.098h108.803zM483.32 258.718c-5.836-6.244-14.65-8.818-22.787-3.61 3.924-9.855 5.967-27.48-4.423-34.018-8.564-5.39-23.985-1.783-29.27 6.747 0 0-15.458 16.67-28.854 30.88h85.335z"/><path fill="#FFAE00" d="M403.785 204.135c21.938-26.655 8.152-38.336 8.152-38.336H395.558s-13.787 11.68 8.15 38.335v.097c.014-.016.025-.033.04-.05.012.017.023.034.037.05v-.097z"/><g><path fill="#DF3428" d="M390.197 166.254l29.217-.395-.132-9.464-29.217.39z"/><path fill="#004666" d="M403.293 116.234c-28.176.38-50.708 23.12-50.323 50.793.09 6.43 1.42 12.555 3.747 18.17 7.166-18.76 25.454-32.232 47.083-32.522 21.63-.29 40.286 12.685 47.964 31.246 2.172-5.673 3.332-11.83 3.244-18.263-.387-27.676-23.54-49.8-51.715-49.423z"/><path fill="#02171C" d="M416.848 154.185c15.866 3.883 28.835 15.045 34.915 29.735 2.172-5.674 3.332-11.832 3.244-18.264-.325-23.25-16.726-42.58-38.666-47.938l.508 36.467z"/><path fill="#FDFDFD" d="M371.545 100.356c.33 23.62 5.717 45.164 14.383 61.807 5.65-1.844 11.685-2.894 17.96-2.976 6.275-.084 12.334.8 18.04 2.492 8.193-16.87 12.98-38.552 12.653-62.168-.52-37.517-13.79-69.83-32.712-85.51-18.48 16.184-30.846 48.837-30.323 86.354z"/><path fill="#D1D1D1" d="M401.87 14c-2.11 1.848.955 145.222.955 145.222.355-.01.707-.03 1.064-.035 6.273-.084 12.332.8 18.038 2.492 8.193-16.87 12.98-38.552 12.653-62.168-.52-37.517-13.788-69.83-32.71-85.51z"/><path fill="#2EBCBC" d="M379.11 50.598l-1.387 4.358s26.925-3.36 50.078-.173l-2.166-4.808s-31.095-3.365-46.523.623z"/><path fill="#1D6077" d="M396.984 149.03c.216 15.604 3.154 29.074 7.26 35.652 3.918-6.685 6.482-20.23 6.266-35.833-.217-15.604-3.157-29.076-7.26-35.654-3.92 6.687-6.484 20.232-6.266 35.834z"/><path fill="#02171C" d="M404.056 184.36c.066.103.125.222.188.322 3.918-6.685 6.482-20.23 6.266-35.833-.217-15.604-3.157-29.076-7.26-35.654-.06.104-.117.226-.18.327l.986 70.836z"/><path fill="#FF6425" d="M379.11 50.598c7.57-.595 15.328-.974 23.254-1.08 7.922-.106 15.688.06 23.27.457-5.776-15.357-14.01-27.89-23.765-35.974-9.528 8.345-17.41 21.09-22.76 36.598z"/><path fill="#DF3428" d="M403.133 49.514c7.655-.084 15.167.08 22.5.46-5.775-15.356-14.01-27.89-23.764-35.973-.173.15-.34.314-.51.467l1.773 35.047z"/><path fill="#FFAE00" d="M402.827 68.81l-.194.003c-3.73.048-7.22 1.524-9.825 4.155-2.607 2.63-4.017 6.095-3.965 9.757.106 7.466 6.376 13.54 13.977 13.54h.194c7.707-.104 13.892-6.347 13.785-13.916-.105-7.466-6.373-13.54-13.973-13.54z"/><path fill="#107570" d="M402.678 72.147c-5.835.076-10.52 4.803-10.44 10.532.08 5.733 4.892 10.33 10.73 10.25 5.834-.08 10.518-4.8 10.438-10.536-.082-5.727-4.894-10.326-10.728-10.247z"/></g><path fill="#E0E3E0" d="M407.18 258.718h33.24c.207-.474.403-.95.58-1.432 3.456-9.435-1.497-23.21-11.49-23.57 12.644-1.775 20.85-11.668 16.5-26.115-2.83-9.4-9.352-12.94-15.767-12.97 3.396 12.838-2.69 31.074-17.365 29.367 15.46 5.393-1.598 20.968-11.125 16.673 3.642 4.386 6.025 11.468 5.426 18.048z"/><path opacity=".3" fill="#E0E3E0" d="M339.918 258.718c-6.435-10.403-4.49-24.878 13.67-30.47l-1.344-.697c-7.724-1.956-17.06 6.875-19.318 14.07-1.675 5.337-2.157 11.366-1.31 17.098h8.302z"/><path fill="#E0E3E0" d="M373.324 258.718c-1.462-3.875-2.42-7.803-2.938-10.935-.04 4.08-1.04 7.805-2.67 10.935h5.608zM486.03 258.718c-6.23-8.14-17.004-12.125-26.864-6.07.225-.543.446-1.117.658-1.705-.812.715-1.587 1.47-2.307 2.28 4.622.76 9.635 2.533 13.49 5.495h15.023z"/><g fill-rule="evenodd" clip-rule="evenodd"><path fill="#fff" d="M730.608 715.89l-146.24.162-.228-206.823 146.24-.162z"/><path fill="#ccc" d="M692.797 534.894l-70.997.078-.004-3.64 70.997-.078zM717.007 543.97l-119.396.132-.003-3.643 119.396-.132zM717.015 550.342l-119.397.132-.004-3.642 119.397-.132zM717.02 556.713l-119.396.132-.004-3.64 119.397-.133zM717.028 563.086l-119.397.13-.003-3.64 119.397-.132zM717.025 569.465l-119.395.132-.004-3.64 119.395-.133zM717.036 575.83l-119.397.133-.005-3.64 119.397-.133zM717.043 582.203l-119.397.132-.004-3.64 119.397-.133zM717.05 588.576l-119.4.13-.003-3.64 119.4-.132zM657.35 595.02l-59.7.067-.003-3.64 59.7-.067z"/><circle fill="#58BFAC" cx="701.62" cy="626.545" r="15.483"/><path fill="#ABF1E5" d="M693.113 639.483c-2.226-1.466-4.05-3.49-5.274-5.87l13.778-7.068-8.505 12.938z"/><path fill="#97E5D7" d="M687.84 633.613c-1.087-2.115-1.7-4.512-1.704-7.052-.004-4.95 2.314-9.36 5.927-12.2l9.556 12.185-13.78 7.068z"/><path fill="#81D8C8" d="M692.063 614.36c2.627-2.062 5.938-3.295 9.54-3.3l.016 15.484-9.557-12.183z"/><path fill="#6DCCBB" d="M701.603 611.062l.016 15.483 11.022-10.87c-2.81-2.854-6.72-4.618-11.04-4.613z"/><path fill="#ccc" d="M668.762 646.52l-71.044.077-.002-1.816 71.044-.077z"/><path fill="#c00" d="M610.333 644.782l-12.63.015-.046-38.047 12.63-.015z"/><path fill="#D91110" d="M624.962 644.738l-12.63.013-.023-23.698 12.628-.013z"/><path fill="#E52020" d="M639.553 644.737l-12.63.014-.018-15.674 12.63-.014z"/><path fill="#F23030" d="M654.143 644.736l-12.63.015-.03-23.023 12.632-.015z"/><path fill="#FE3F3F" d="M668.758 644.706l-12.63.014-.018-16.463 12.63-.014z"/><path fill="#ccc" d="M693.5 646.503l-6.375.007-.002-1.815 6.374-.007zM715.392 646.473l-18.936.02-.002-1.816 18.936-.02zM652.514 655.942l-54.795.06-.005-3.64 54.795-.06zM652.52 662.314l-54.794.06-.004-3.64 54.794-.06zM652.515 668.696l-54.797.06-.004-3.64 54.797-.06zM652.534 675.057l-54.796.06-.004-3.64 54.796-.06zM652.53 681.438l-54.797.06-.004-3.64 54.795-.06zM652.56 687.79l-54.797.06-.004-3.642 54.795-.06zM652.59 694.138l-54.796.06-.004-3.642 54.797-.06zM625.162 700.572l-27.398.03-.004-3.64 27.398-.032zM717.126 655.862l-54.794.06-.004-3.64 54.794-.06zM717.133 662.233l-54.797.06-.004-3.64 54.797-.06zM717.127 668.618l-54.796.06-.003-3.64 54.796-.06zM717.147 674.978l-54.794.06-.004-3.642 54.793-.06zM717.153 681.348l-54.794.06-.005-3.642 54.794-.06zM717.147 687.73l-54.794.062-.004-3.64 54.793-.062zM717.167 694.09l-54.795.062-.004-3.642 54.795-.06zM700.95 700.48l-38.57.04-.003-3.64 38.568-.042z"/></g><g fill-rule="evenodd" clip-rule="evenodd"><path fill="#fff" d="M577.69 325.45c10.794-23.64 38.706-34.05 62.343-23.255 23.64 10.792 34.05 38.706 23.254 62.342-10.793 23.64-38.705 34.05-62.346 23.256-23.633-10.795-34.045-38.708-23.25-62.343z"/><path fill="#E6E6E6" d="M580.32 326.65c10.13-22.187 36.326-31.957 58.512-21.825s31.957 36.327 21.824 58.51c-10.13 22.187-36.326 31.958-58.512 21.83-22.185-10.136-31.955-36.332-21.824-58.515z"/><path fill="#fff" d="M568.12 324.256l1.31-2.868c.84-1.842 3.035-2.66 4.877-1.82l21.04 9.61c1.843.84 2.66 3.033 1.82 4.875l-1.314 2.87c-.84 1.84-3.03 2.66-4.873 1.818l-21.043-9.607c-1.84-.84-2.658-3.035-1.818-4.877z"/><path fill="#E6E6E6" d="M570.027 324.496l.832-1.823c.532-1.17 1.927-1.69 3.097-1.154l19.752 9.02c1.167.532 1.688 1.928 1.153 3.097l-.832 1.822c-.532 1.168-1.927 1.687-3.097 1.153l-19.75-9.02c-1.17-.535-1.69-1.93-1.156-3.097z"/><circle fill="#fff" cx="620.488" cy="344.993" r="37.062"/><path fill="#B3B3B3" d="M590.123 331.125c7.658-16.77 27.46-24.157 44.23-16.497 16.773 7.658 24.158 27.46 16.5 44.233-7.66 16.77-27.46 24.155-44.232 16.5-16.77-7.66-24.157-27.463-16.497-44.235z"/><circle cx="620.488" cy="344.993" r="28.388"/></g><path fill="#424747" d="M58.794 179.952l2.557 165.475 138.263-6.856-2.693-169.04-129.75 2.22c-4.567.075-8.364 3.654-8.376 8.202z"/><path fill="#515656" d="M58.934 180.104l-.215.005 2.63 165.318 7.752-.384-2.76-173.237c-4.172.477-7.398 4.027-7.408 8.297z"/><path fill="#EACE8B" d="M63.426 345.86c.06 3.77 3.164 6.775 6.934 6.715l128.41-2.045-.218-13.647-128.41 2.045c-3.768.06-6.777 3.164-6.716 6.932z"/><path fill="#363636" d="M61.565 345.89c.072 4.617 3.89 8.314 8.51 8.24l129.44-2.06-.047-3.103-129.444 2.062c-2.907.045-5.31-2.283-5.356-5.19-.047-2.907 2.28-5.31 5.188-5.355l129.444-2.063-.048-3.1-129.445 2.06c-4.618.073-8.314 3.89-8.242 8.507z"/><path opacity=".4" fill="#161919" d="M60.274 275.846l138.305-2.202-.094-5.79-138.298 2.202z"/><path fill="#72F4F7" d="M198.843 270.634l-139.27 2.214-.912-57.383 139.27-2.215z"/><path fill="#58D6D6" d="M68.986 272.7l-9.407.15-.908-57.384 9.407-.15z"/><path fill="#DF3428" d="M164.908 353.593l-7.857.126-2.944-184.04 7.858-.125z"/><path fill="#A82618" d="M164.904 353.59l-7.857.125-.27-16.957 7.856-.125z"/><path fill="#C93B25" d="M88.912 361.42l-9.512.153-.265-16.543 9.512-.152z"/><g fill-rule="evenodd" clip-rule="evenodd"><path fill="#F85A68" d="M723.508 456.285l17.84-7.934-17.89-7.815-145.72.482c-2.36.01-4.288 1.947-4.28 4.31l.022 7.16c.008 2.362 1.95 4.287 4.31 4.28l145.718-.482z"/><path fill="#C62229" d="M723.508 456.285l17.84-7.934-18.58.063-149.3.493.013 3.58c.01 2.363 1.95 4.288 4.31 4.28l145.718-.48z"/><path fill="#fff" d="M723.508 456.285l17.84-7.934-17.89-7.815-139.397.463c-.923 5.547-.863 10.763.054 15.75l139.394-.463z"/><path fill="#D0D0D0" d="M723.508 456.285l17.84-7.934-18.58.063-139.37.46c.002 2.693.248 5.313.717 7.874l139.393-.462z"/><path fill="#F5E6B6" d="M723.508 456.285l17.84-7.934-17.89-7.815-134.372.445c-.99 5.578-.927 10.792.052 15.748l134.37-.443z"/><path fill="#F9A818" d="M723.508 456.285l17.84-7.934-18.58.063-134.394.444c0 2.702.26 5.32.765 7.872l134.368-.445z"/><path fill="#F0B16C" d="M723.51 456.285l17.838-7.934-17.89-7.815c-.456 2.505-.698 5.146-.69 7.878.01 2.73.27 5.372.742 7.872z"/><path fill="#C78B4C" d="M723.51 456.285l17.838-7.934-18.58.063c.01 2.73.27 5.372.742 7.872z"/><path fill="#1E1E1E" d="M735.455 450.973l5.893-2.62-5.91-2.582c-.152.827-.23 1.7-.228 2.603.003.9.088 1.773.245 2.6z"/></g><g fill-rule="evenodd" clip-rule="evenodd"><path fill="#F85A68" d="M552.246 563.607l7.934-17.84 7.816 17.89-.482 145.72c-.01 2.36-1.947 4.288-4.31 4.28l-7.16-.022c-2.362-.008-4.287-1.95-4.28-4.31l.482-145.718z"/><path fill="#C62229" d="M552.246 563.607l7.934-17.84-.062 18.58-.493 149.3-3.58-.013c-2.363-.008-4.288-1.95-4.28-4.31l.48-145.717z"/><path fill="#013C5C" d="M552.246 563.607l7.934-17.84 7.816 17.89-.463 139.397c-5.547.924-10.763.864-15.75-.053l.463-139.393z"/><path d="M552.246 563.607l7.934-17.84-.062 18.58-.46 139.37c-2.693-.002-5.313-.248-7.874-.717l.462-139.393z"/><path fill="#f50" d="M552.246 563.607l7.934-17.84 7.816 17.89-.445 134.372c-5.577.99-10.79.926-15.747-.053l.443-134.37z"/><path fill="#C62229" d="M552.246 563.607l7.934-17.84-.062 18.58-.444 134.394c-2.702.002-5.32-.258-7.872-.764l.444-134.37z"/><path fill="#F0B16C" d="M552.246 563.605l7.934-17.838 7.816 17.89c-2.505.456-5.146.698-7.878.69-2.73-.01-5.372-.27-7.872-.742z"/><path fill="#C78B4C" d="M552.246 563.605l7.934-17.838-.062 18.58c-2.73-.01-5.372-.27-7.872-.742z"/><path fill="#1E1E1E" d="M557.56 551.66l2.62-5.893 2.58 5.91c-.825.152-1.698.23-2.6.228-.902-.003-1.775-.088-2.6-.245z"/></g><g fill-rule="evenodd" clip-rule="evenodd"><path fill="#fff" d="M262.213 323.77l288.775-.332c3.704-.003 6.738 3.024 6.74 6.728l.218 187.297c.005 3.703-3.023 6.738-6.727 6.742l-288.776.334c-3.7.003-6.74-3.024-6.744-6.728l-.215-187.3c-.004-3.703 3.023-6.738 6.728-6.74z"/><path fill="#B3B3B3" d="M275.325 323.756l16.743-.018.01 9.563c.002.864-.704 1.573-1.57 1.575l-13.596.015c-.865 0-1.575-.706-1.576-1.57l-.01-9.564zM521.133 323.473l16.742-.02.01 9.565c.002.863-.705 1.572-1.57 1.573l-13.598.017c-.865 0-1.572-.708-1.574-1.57l-.01-9.564z"/><path fill="#ccc" d="M234.237 240.03l344.015-.396c8.273-.01 10.796 3.85 7.407 9.178l-28.733 71.19-301.454.346-25.69-66.496c-5.768-9.093-4.658-13.81 4.454-13.82z"/><path fill="#58BFAC" d="M568.054 253.408l-20.892 60.524-281.696.326-21.188-60.478z"/><path fill="#fff" d="M232.34 241.293l348.664-.402c.74 0 1.348.605 1.348 1.346 0 .74-.604 1.35-1.345 1.35l-348.663.403c-.74 0-1.35-.608-1.35-1.347v-.002c0-.74.607-1.346 1.347-1.347zM277.694 315.076l11.987-.012c.763 0 1.388.62 1.388 1.385l.017 14.164c0 .763-.623 1.39-1.386 1.39l-11.988.014c-.763 0-1.388-.622-1.39-1.386l-.016-14.167c0-.762.625-1.385 1.388-1.39zM523.5 314.795l11.987-.015c.763 0 1.388.622 1.388 1.385l.016 14.166c.004.765-.62 1.39-1.384 1.392l-11.986.012c-.764.003-1.388-.622-1.39-1.385l-.016-14.168c0-.763.622-1.388 1.386-1.387z"/><path fill="#ccc" d="M528.342 350.22l9.327-.01c1.06 0 1.928.865 1.928 1.926l.01 6.93c0 1.06-.865 1.93-1.926 1.93l-9.327.01c-1.06.002-1.928-.862-1.928-1.923l-.01-6.932c0-1.06.865-1.928 1.925-1.93zM528.786 363.443l8.47-.01c1.295-.002 2.356 1.057 2.357 2.352l.01 9.39c.003 1.295-1.057 2.356-2.352 2.354l-8.468.01c-1.296.003-2.356-1.056-2.358-2.35l-.012-9.392c0-1.292 1.058-2.353 2.354-2.355zM528.805 379.978l8.47-.01c1.297 0 2.357 1.058 2.358 2.353l.012 9.39c0 1.293-1.06 2.354-2.353 2.357l-8.47.01c-1.297 0-2.357-1.058-2.358-2.353l-.01-9.388c-.003-1.295 1.055-2.356 2.35-2.358zM528.824 396.514l8.47-.01c1.295 0 2.356 1.057 2.357 2.352l.013 9.39c0 1.293-1.057 2.354-2.352 2.356l-8.47.01c-1.296 0-2.357-1.06-2.358-2.352l-.01-9.39c0-1.295 1.057-2.354 2.352-2.356zM528.844 413.05l8.47-.01c1.294-.005 2.354 1.055 2.357 2.35l.012 9.388c.002 1.295-1.057 2.355-2.353 2.357l-8.47.01c-1.297.004-2.357-1.057-2.358-2.352l-.01-9.388c-.003-1.295 1.056-2.356 2.352-2.356zM528.862 429.582l8.47-.008c1.295-.004 2.356 1.055 2.356 2.35l.014 9.39c0 1.294-1.06 2.354-2.354 2.356l-8.472.01c-1.293.002-2.354-1.057-2.357-2.352l-.01-9.387c0-1.297 1.057-2.356 2.352-2.358zM511.868 350.24l9.326-.01c1.06-.002 1.928.865 1.93 1.924l.008 6.93c0 1.06-.865 1.93-1.925 1.93l-9.328.012c-1.06 0-1.928-.867-1.928-1.926l-.01-6.93c0-1.06.865-1.927 1.926-1.93zM497.258 363.48l23.36-.027c1.384-.002 2.52 1.13 2.52 2.516l.01 9.06c0 1.385-1.13 2.52-2.516 2.52l-23.36.026c-1.383.004-2.518-1.13-2.52-2.514l-.01-9.06c0-1.385 1.13-2.522 2.516-2.52zM508 380.002l12.637-.016c1.385 0 2.52 1.133 2.52 2.516l.012 9.062c0 1.384-1.13 2.52-2.517 2.52l-12.637.017c-1.387.002-2.52-1.13-2.522-2.516l-.01-9.06c0-1.385 1.13-2.52 2.517-2.522zM495.438 396.553l25.218-.03c1.385 0 2.52 1.132 2.52 2.517l.013 9.06c0 1.385-1.133 2.52-2.52 2.52l-25.216.03c-1.385 0-2.52-1.13-2.52-2.515l-.01-9.063c-.002-1.384 1.128-2.52 2.514-2.52zM512.368 413.066l8.47-.01c1.297-.002 2.355 1.057 2.357 2.35l.012 9.39c0 1.296-1.057 2.356-2.352 2.36l-8.472.008c-1.294.002-2.355-1.06-2.356-2.352l-.012-9.39c0-1.293 1.058-2.354 2.353-2.356zM512.387 429.602l8.472-.01c1.293-.004 2.354 1.057 2.355 2.352l.012 9.39c0 1.294-1.058 2.353-2.353 2.354l-8.47.012c-1.295-.002-2.356-1.06-2.358-2.352l-.01-9.39c-.003-1.294 1.056-2.356 2.35-2.356zM496.652 350.258l8.066-.01c1.06 0 1.93.867 1.93 1.924l.008 6.932c.002 1.06-.865 1.928-1.924 1.93l-8.07.008c-1.058.002-1.927-.865-1.928-1.924l-.007-6.93c-.002-1.063.865-1.927 1.925-1.93zM481.186 350.276l8.067-.01c1.062 0 1.93.865 1.93 1.925l.007 6.933c.002 1.057-.863 1.926-1.923 1.927l-8.067.01c-1.06.003-1.93-.864-1.93-1.923l-.01-6.932c-.002-1.06.865-1.93 1.926-1.93zM465.72 350.295l8.07-.01c1.06 0 1.925.864 1.927 1.924l.007 6.93c.002 1.058-.862 1.927-1.923 1.93l-8.067.01c-1.06 0-1.928-.866-1.93-1.927l-.01-6.93c0-1.062.865-1.93 1.926-1.928zM450.254 350.31l8.07-.008c1.06 0 1.926.865 1.927 1.925l.01 6.932c0 1.058-.864 1.926-1.925 1.927l-8.07.01c-1.06 0-1.927-.863-1.93-1.924l-.005-6.932c-.002-1.06.864-1.928 1.924-1.93zM434.787 350.33l8.07-.01c1.06-.002 1.928.865 1.93 1.924l.006 6.932c0 1.06-.863 1.927-1.925 1.928l-8.068.01c-1.06 0-1.927-.865-1.93-1.926l-.007-6.93c0-1.06.865-1.928 1.924-1.93zM419.322 350.347l8.068-.01c1.06 0 1.928.866 1.93 1.925l.008 6.932c0 1.06-.867 1.927-1.926 1.93l-8.067.008c-1.06 0-1.927-.865-1.928-1.924l-.01-6.93c0-1.06.867-1.93 1.925-1.93zM403.856 350.364l8.07-.008c1.06-.003 1.925.865 1.927 1.923l.01 6.93c0 1.06-.867 1.93-1.926 1.93l-8.07.01c-1.06 0-1.927-.864-1.928-1.925l-.01-6.93c0-1.062.868-1.93 1.926-1.93zM388.39 350.383l8.07-.008c1.06-.003 1.926.864 1.928 1.924l.01 6.93c0 1.06-.867 1.927-1.926 1.928l-8.068.01c-1.06 0-1.928-.866-1.93-1.925l-.008-6.93c-.002-1.06.865-1.93 1.924-1.93zM372.925 350.4l8.07-.01c1.06 0 1.926.866 1.927 1.926l.007 6.93c.002 1.06-.865 1.93-1.924 1.93l-8.068.008c-1.06.003-1.928-.863-1.93-1.924l-.008-6.93c0-1.06.864-1.928 1.925-1.93zM357.46 350.418l8.067-.008c1.06 0 1.928.864 1.93 1.924l.007 6.93c0 1.06-.865 1.928-1.926 1.93l-8.067.01c-1.06 0-1.928-.865-1.928-1.926l-.008-6.93c0-1.06.865-1.93 1.926-1.93zM341.993 350.437l8.07-.01c1.06 0 1.927.866 1.928 1.925l.01 6.93c0 1.06-.866 1.93-1.925 1.93l-8.068.01c-1.06 0-1.927-.863-1.93-1.924l-.007-6.932c-.002-1.06.863-1.928 1.923-1.93zM326.527 350.454l8.068-.008c1.06 0 1.928.864 1.93 1.923l.007 6.93c0 1.06-.865 1.928-1.925 1.93l-8.068.01c-1.063.002-1.93-.866-1.93-1.927l-.008-6.93c0-1.06.866-1.928 1.925-1.93zM311.062 350.473l8.068-.01c1.06 0 1.93.866 1.93 1.924l.007 6.932c.003 1.06-.863 1.926-1.924 1.93l-8.068.007c-1.06.002-1.926-.865-1.928-1.924l-.01-6.932c0-1.058.865-1.927 1.925-1.927zM295.597 350.49l8.067-.01c1.06 0 1.928.866 1.93 1.924l.01 6.932c0 1.06-.867 1.93-1.927 1.928l-8.068.012c-1.06 0-1.93-.865-1.93-1.926l-.008-6.932c-.003-1.06.864-1.926 1.925-1.93zM278.223 350.51l9.326-.01c1.06 0 1.927.865 1.928 1.924l.007 6.932c0 1.06-.864 1.928-1.923 1.93l-9.327.01c-1.06 0-1.928-.864-1.93-1.926l-.007-6.93c0-1.06.864-1.928 1.925-1.93zM480.57 363.5l8.314-.01c1.27-.003 2.312 1.037 2.313 2.31l.012 9.474c0 1.27-1.038 2.313-2.31 2.314l-8.313.01c-1.272 0-2.312-1.04-2.314-2.31l-.01-9.475c0-1.27 1.038-2.313 2.308-2.314zM463.79 363.518l8.314-.008c1.272 0 2.313 1.037 2.314 2.31l.01 9.473c.003 1.27-1.036 2.313-2.308 2.314l-8.313.01c-1.27.003-2.312-1.038-2.313-2.31l-.01-9.475c0-1.27 1.037-2.312 2.307-2.314zM447.013 363.537l8.312-.01c1.272 0 2.313 1.038 2.313 2.31l.013 9.476c.004 1.27-1.038 2.313-2.31 2.313l-8.312.01c-1.27.003-2.312-1.037-2.313-2.31l-.013-9.473c0-1.272 1.04-2.313 2.31-2.316zM430.233 363.56l8.313-.01c1.27-.003 2.313 1.036 2.314 2.308l.012 9.473c0 1.273-1.038 2.314-2.31 2.317l-8.314.01c-1.27 0-2.312-1.038-2.313-2.31l-.01-9.474c-.002-1.273 1.037-2.312 2.308-2.314zM413.45 363.577l8.315-.01c1.27-.002 2.313 1.037 2.314 2.31l.01 9.473c0 1.27-1.037 2.313-2.308 2.314l-8.314.01c-1.27 0-2.313-1.037-2.313-2.31l-.012-9.473c0-1.27 1.04-2.312 2.308-2.313zM396.67 363.596l8.316-.01c1.27-.002 2.312 1.037 2.314 2.31l.01 9.475c.002 1.272-1.036 2.314-2.308 2.314l-8.313.01c-1.272.002-2.314-1.038-2.315-2.31l-.012-9.474c0-1.27 1.038-2.312 2.308-2.314zM379.894 363.615l8.314-.01c1.27 0 2.31 1.038 2.31 2.31l.015 9.474c0 1.27-1.038 2.312-2.31 2.313l-8.313.01c-1.27.002-2.313-1.04-2.314-2.31l-.01-9.474c-.002-1.27 1.037-2.313 2.308-2.315zM363.113 363.635l8.315-.01c1.27 0 2.312 1.037 2.313 2.31l.012 9.474c.003 1.27-1.037 2.312-2.31 2.313l-8.312.01c-1.27.002-2.312-1.037-2.313-2.31l-.01-9.474c-.002-1.272 1.035-2.313 2.306-2.315zM346.335 363.656l8.312-.012c1.27-.002 2.313 1.037 2.313 2.308l.01 9.478c.002 1.27-1.037 2.31-2.308 2.313l-8.312.01c-1.27 0-2.313-1.037-2.313-2.31l-.01-9.474c-.003-1.274 1.036-2.314 2.308-2.314zM329.555 363.674l8.313-.008c1.27-.004 2.313 1.037 2.314 2.307l.01 9.474c.002 1.272-1.036 2.313-2.307 2.314l-8.314.01c-1.27.002-2.31-1.037-2.312-2.308l-.012-9.474c0-1.27 1.037-2.312 2.31-2.314zM312.774 363.693l8.313-.01c1.27 0 2.31 1.036 2.314 2.31l.012 9.472c0 1.27-1.037 2.314-2.308 2.314l-8.314.01c-1.27.002-2.31-1.038-2.313-2.31l-.01-9.474c-.002-1.27 1.037-2.313 2.307-2.313zM295.995 363.712l8.313-.01c1.27 0 2.313 1.038 2.314 2.31l.01 9.475c.003 1.27-1.036 2.312-2.307 2.313l-8.314.01c-1.27 0-2.31-1.037-2.312-2.31l-.01-9.473c-.003-1.27 1.036-2.314 2.307-2.315zM278.665 363.732l8.47-.01c1.296-.002 2.358 1.056 2.36 2.35l.01 9.39c0 1.296-1.058 2.356-2.352 2.357l-8.47.01c-1.295 0-2.357-1.06-2.358-2.352l-.01-9.39c-.002-1.293 1.056-2.355 2.35-2.356zM278.85 380.266l17.428-.02c1.386 0 2.52 1.13 2.522 2.517l.01 9.06c0 1.385-1.13 2.52-2.516 2.52l-17.428.02c-1.386.003-2.52-1.13-2.522-2.513l-.01-9.06c-.003-1.387 1.13-2.522 2.515-2.524zM278.87 396.8l20.722-.02c1.385-.004 2.52 1.13 2.52 2.514l.01 9.062c.003 1.385-1.13 2.52-2.514 2.52l-20.724.024c-1.385.002-2.52-1.132-2.52-2.516l-.01-9.062c-.004-1.384 1.13-2.517 2.515-2.52zM278.887 413.336l29.71-.035c1.386 0 2.52 1.132 2.52 2.517l.012 9.063c0 1.383-1.13 2.52-2.517 2.52l-29.71.037c-1.384 0-2.518-1.133-2.52-2.518l-.01-9.06c-.003-1.385 1.13-2.522 2.514-2.524zM278.906 429.87l12.336-.015c1.384 0 2.52 1.133 2.52 2.52l.01 9.06c.002 1.382-1.13 2.517-2.514 2.52l-12.336.013c-1.386.002-2.52-1.13-2.52-2.516l-.012-9.057c-.002-1.387 1.13-2.522 2.516-2.524zM303.367 380.238l8.903-.01c1.36-.002 2.475 1.11 2.48 2.472l.008 9.147c0 1.36-1.11 2.475-2.47 2.477l-8.905.012c-1.36.002-2.475-1.11-2.477-2.473l-.01-9.146c-.002-1.362 1.11-2.478 2.47-2.48zM320.46 380.218l8.905-.01c1.36 0 2.475 1.112 2.476 2.474l.012 9.146c.002 1.362-1.11 2.478-2.472 2.478l-8.903.012c-1.36 0-2.477-1.11-2.478-2.473l-.01-9.146c-.002-1.364 1.11-2.48 2.47-2.482zM337.556 380.2l8.903-.01c1.36-.004 2.475 1.108 2.478 2.472l.01 9.146c.002 1.362-1.11 2.478-2.472 2.478l-8.903.01c-1.36.003-2.476-1.107-2.477-2.47l-.01-9.147c-.003-1.366 1.11-2.48 2.47-2.48zM354.652 380.18l8.903-.01c1.36-.002 2.475 1.11 2.476 2.472l.012 9.147c.002 1.36-1.11 2.474-2.47 2.476l-8.905.01c-1.36.002-2.476-1.11-2.478-2.47l-.012-9.148c0-1.362 1.113-2.478 2.474-2.478zM371.745 380.158l8.904-.01c1.358 0 2.476 1.11 2.476 2.473l.01 9.15c.003 1.36-1.11 2.475-2.47 2.476l-8.904.01c-1.36.004-2.476-1.11-2.477-2.473l-.01-9.146c-.003-1.362 1.108-2.476 2.47-2.48zM388.84 380.14l8.903-.01c1.36-.003 2.478 1.112 2.48 2.472l.01 9.148c0 1.36-1.112 2.474-2.472 2.477l-8.904.01c-1.36.002-2.473-1.11-2.477-2.472l-.012-9.146c-.002-1.364 1.11-2.478 2.472-2.48zM405.936 380.12l8.902-.01c1.36-.002 2.477 1.11 2.477 2.472l.013 9.147c0 1.36-1.113 2.475-2.473 2.477l-8.904.01c-1.358.002-2.474-1.11-2.477-2.472l-.01-9.147c-.002-1.362 1.11-2.477 2.473-2.48zM423.027 380.1l8.904-.01c1.36 0 2.48 1.11 2.48 2.473l.01 9.148c.002 1.36-1.11 2.476-2.472 2.478l-8.904.01c-1.36 0-2.476-1.11-2.478-2.473l-.01-9.146c0-1.364 1.112-2.478 2.47-2.48zM440.124 380.08l8.904-.01c1.36-.002 2.474 1.11 2.477 2.472l.01 9.15c0 1.358-1.11 2.473-2.47 2.475l-8.905.01c-1.36.003-2.476-1.11-2.477-2.472l-.01-9.146c0-1.364 1.11-2.478 2.47-2.48zM457.22 380.062l8.902-.013c1.36 0 2.476 1.112 2.478 2.472l.01 9.15c.003 1.36-1.11 2.474-2.472 2.477l-8.9.01c-1.363 0-2.48-1.112-2.48-2.473l-.01-9.147c-.004-1.362 1.11-2.478 2.472-2.478zM474.313 380.04l8.902-.01c1.36 0 2.478 1.112 2.48 2.474l.01 9.146c.002 1.36-1.112 2.477-2.474 2.48l-8.9.01c-1.36 0-2.478-1.11-2.48-2.473l-.01-9.15c0-1.36 1.112-2.474 2.473-2.476zM491.408 380.02l8.902-.01c1.36 0 2.477 1.11 2.478 2.473l.01 9.147c.003 1.36-1.11 2.475-2.47 2.478l-8.904.01c-1.36 0-2.476-1.11-2.48-2.47l-.01-9.15c.002-1.36 1.114-2.475 2.474-2.477zM308.143 396.768l8.903-.01c1.36-.002 2.474 1.11 2.476 2.47l.012 9.15c0 1.36-1.11 2.476-2.47 2.478l-8.905.01c-1.36.002-2.476-1.11-2.48-2.472l-.01-9.15c-.003-1.36 1.11-2.474 2.473-2.476zM325.235 396.748l8.904-.01c1.36-.002 2.475 1.11 2.477 2.47l.01 9.15c.002 1.36-1.11 2.474-2.47 2.478l-8.904.01c-1.362 0-2.477-1.11-2.48-2.473l-.01-9.147c0-1.36 1.113-2.476 2.472-2.478zM342.332 396.73l8.904-.013c1.36 0 2.477 1.112 2.477 2.474l.01 9.148c.003 1.36-1.11 2.477-2.47 2.48l-8.905.01c-1.36 0-2.476-1.112-2.476-2.474l-.01-9.148c-.004-1.36 1.11-2.476 2.47-2.477zM359.426 396.71l8.904-.01c1.36-.003 2.475 1.108 2.476 2.47l.01 9.146c.003 1.363-1.11 2.478-2.47 2.48l-8.905.01c-1.358 0-2.476-1.11-2.476-2.473l-.01-9.148c0-1.36 1.11-2.474 2.472-2.475zM376.52 396.688l8.904-.01c1.36 0 2.477 1.11 2.477 2.472l.012 9.148c.002 1.36-1.11 2.475-2.472 2.477l-8.903.012c-1.36 0-2.475-1.112-2.477-2.473l-.01-9.148c-.003-1.36 1.108-2.476 2.47-2.478zM393.616 396.67l8.9-.01c1.36-.002 2.477 1.11 2.48 2.47l.01 9.148c0 1.36-1.11 2.476-2.472 2.478l-8.902.01c-1.363.003-2.477-1.11-2.48-2.472l-.01-9.146c0-1.363 1.113-2.478 2.474-2.478zM410.71 396.648l8.903-.01c1.36 0 2.475 1.11 2.477 2.473l.012 9.147c0 1.363-1.11 2.477-2.472 2.48l-8.903.01c-1.362.002-2.477-1.11-2.48-2.473l-.01-9.148c0-1.36 1.112-2.476 2.472-2.478zM427.805 396.63l8.9-.01c1.362-.003 2.48 1.11 2.48 2.472l.012 9.146c0 1.36-1.112 2.478-2.473 2.48l-8.9.01c-1.364 0-2.48-1.11-2.48-2.474l-.01-9.146c-.004-1.363 1.11-2.477 2.47-2.48zM444.9 396.61l8.902-.01c1.36-.003 2.475 1.108 2.476 2.472l.01 9.146c.002 1.36-1.11 2.478-2.47 2.48l-8.904.01c-1.36 0-2.475-1.11-2.477-2.474l-.01-9.146c-.002-1.36 1.11-2.477 2.472-2.478zM461.993 396.59l8.902-.01c1.362-.002 2.477 1.11 2.48 2.47l.01 9.15c0 1.36-1.112 2.476-2.475 2.478l-8.9.01c-1.362.002-2.477-1.11-2.48-2.473l-.01-9.148c0-1.362 1.113-2.475 2.473-2.477zM479.088 396.57l8.903-.01c1.36-.002 2.478 1.11 2.48 2.473l.01 9.146c.002 1.36-1.11 2.478-2.472 2.478l-8.904.01c-1.36.002-2.476-1.11-2.477-2.473l-.01-9.147c-.002-1.36 1.11-2.476 2.47-2.478zM317.11 413.292l8.903-.01c1.362 0 2.477 1.112 2.48 2.474l.01 9.146c0 1.36-1.113 2.477-2.474 2.477l-8.904.01c-1.36 0-2.475-1.11-2.477-2.472l-.012-9.146c0-1.362 1.11-2.48 2.472-2.48zM334.205 413.27l8.904-.01c1.36 0 2.476 1.112 2.477 2.474l.01 9.148c.004 1.36-1.11 2.475-2.472 2.475l-8.903.012c-1.36.003-2.475-1.112-2.477-2.472l-.01-9.146c-.002-1.36 1.11-2.48 2.47-2.48zM351.3 413.252l8.904-.01c1.36-.002 2.475 1.112 2.477 2.473l.012 9.148c0 1.36-1.11 2.475-2.47 2.477l-8.906.01c-1.36.002-2.477-1.11-2.477-2.47l-.013-9.148c0-1.363 1.113-2.478 2.473-2.48zM368.394 413.232l8.905-.01c1.358-.002 2.474 1.112 2.476 2.474l.012 9.146c0 1.36-1.11 2.48-2.473 2.48l-8.904.01c-1.358 0-2.474-1.112-2.477-2.472l-.01-9.148c-.002-1.362 1.11-2.478 2.47-2.48zM385.488 413.213l8.905-.012c1.36 0 2.475 1.114 2.478 2.476l.01 9.148c.002 1.36-1.11 2.475-2.47 2.477l-8.905.01c-1.36 0-2.477-1.11-2.477-2.47l-.01-9.148c-.004-1.362 1.11-2.478 2.47-2.48zM402.585 413.193l8.903-.01c1.36-.002 2.475 1.11 2.477 2.473l.01 9.148c0 1.36-1.11 2.473-2.47 2.477l-8.905.01c-1.36.003-2.476-1.11-2.478-2.47l-.01-9.148c-.004-1.36 1.112-2.477 2.473-2.48zM419.678 413.174l8.904-.012c1.36 0 2.477 1.114 2.477 2.474l.012 9.15c0 1.358-1.113 2.472-2.475 2.476l-8.903.01c-1.36 0-2.475-1.113-2.477-2.47l-.01-9.15c-.002-1.36 1.11-2.478 2.47-2.478zM436.774 413.154l8.902-.01c1.36-.003 2.475 1.11 2.477 2.473l.01 9.146c.003 1.36-1.11 2.477-2.47 2.477l-8.903.012c-1.362 0-2.477-1.11-2.48-2.47l-.01-9.15c0-1.36 1.11-2.476 2.474-2.478zM453.868 413.135l8.903-.01c1.362-.002 2.477 1.11 2.478 2.473l.01 9.146c.003 1.36-1.11 2.475-2.47 2.477l-8.905.013c-1.36 0-2.475-1.11-2.477-2.47l-.01-9.15c-.002-1.36 1.11-2.477 2.472-2.478zM470.963 413.114l8.902-.01c1.36 0 2.477 1.112 2.478 2.474l.01 9.146c.003 1.36-1.11 2.475-2.47 2.477l-8.903.013c-1.362.002-2.477-1.11-2.48-2.47l-.01-9.15c-.003-1.36 1.112-2.478 2.473-2.48zM488.102 413.096l16.098-.02c1.386-.002 2.52 1.13 2.52 2.516l.013 9.06c.002 1.386-1.13 2.522-2.517 2.522l-16.098.018c-1.386.004-2.52-1.13-2.522-2.514l-.01-9.062c-.003-1.384 1.13-2.518 2.516-2.52zM299.756 429.848l8.904-.01c1.36-.004 2.477 1.11 2.477 2.47l.01 9.15c.003 1.36-1.11 2.474-2.47 2.474l-8.905.012c-1.36.002-2.474-1.11-2.476-2.47l-.01-9.15c-.002-1.36 1.11-2.476 2.47-2.476zM316.85 429.826l8.905-.01c1.36-.002 2.476 1.11 2.478 2.473l.01 9.145c0 1.36-1.11 2.477-2.47 2.477l-8.905.012c-1.36.002-2.477-1.11-2.478-2.473l-.01-9.144c-.003-1.363 1.11-2.478 2.47-2.48zM333.946 429.807l8.904-.012c1.36 0 2.477 1.113 2.478 2.475l.01 9.146c.003 1.36-1.112 2.475-2.473 2.48l-8.903.01c-1.36 0-2.476-1.112-2.478-2.474l-.01-9.146c0-1.362 1.11-2.477 2.472-2.48zM351.04 429.79l8.904-.013c1.36-.002 2.477 1.11 2.478 2.473l.01 9.146c.003 1.36-1.11 2.477-2.47 2.48l-8.904.007c-1.36.004-2.477-1.107-2.477-2.47l-.01-9.147c-.003-1.362 1.11-2.477 2.47-2.477zM368.136 429.768l8.903-.012c1.36 0 2.475 1.113 2.478 2.475l.01 9.15c0 1.358-1.11 2.474-2.47 2.474l-8.905.012c-1.36 0-2.477-1.11-2.478-2.473l-.01-9.148c-.004-1.362 1.11-2.475 2.47-2.477zM385.23 429.748l8.903-.012c1.36 0 2.477 1.11 2.477 2.473l.01 9.147c.004 1.36-1.11 2.475-2.47 2.477l-8.904.012c-1.36.002-2.477-1.11-2.477-2.473l-.013-9.146c0-1.364 1.112-2.477 2.473-2.48zM402.325 429.73l8.902-.013c1.36 0 2.476 1.113 2.478 2.473l.012 9.148c0 1.36-1.11 2.475-2.473 2.48l-8.903.01c-1.36 0-2.476-1.112-2.478-2.474l-.01-9.146c0-1.362 1.112-2.478 2.473-2.48zM419.42 429.71l8.904-.013c1.358 0 2.474 1.113 2.477 2.473l.01 9.148c.003 1.36-1.11 2.477-2.47 2.48l-8.905.01c-1.36 0-2.475-1.112-2.478-2.474l-.01-9.148c-.002-1.36 1.112-2.475 2.473-2.477zM436.513 429.69l8.904-.013c1.36 0 2.477 1.11 2.477 2.473l.012 9.148c0 1.363-1.11 2.475-2.473 2.477l-8.903.01c-1.36.002-2.475-1.11-2.477-2.47l-.01-9.15c-.003-1.36 1.11-2.476 2.47-2.476zM453.61 429.668l8.9-.008c1.36-.002 2.478 1.11 2.478 2.47l.012 9.15c0 1.36-1.112 2.474-2.472 2.476l-8.903.012c-1.36 0-2.476-1.11-2.48-2.473l-.01-9.148c0-1.362 1.112-2.477 2.474-2.48zM470.746 429.648l16.1-.018c1.386-.002 2.52 1.13 2.522 2.516l.01 9.06c0 1.386-1.13 2.52-2.517 2.522l-16.098.018c-1.385.002-2.52-1.13-2.52-2.516l-.01-9.06c-.002-1.383 1.13-2.52 2.514-2.522zM495.912 429.62l8.47-.013c1.296.002 2.356 1.06 2.358 2.355l.01 9.387c.002 1.294-1.057 2.354-2.352 2.356l-8.47.01c-1.295.002-2.357-1.057-2.357-2.352l-.01-9.387c0-1.293 1.057-2.356 2.352-2.358zM362.337 455.73l88.83-.102c1.354-.002 2.467 1.104 2.468 2.457l.05 42.715c.002 1.355-1.107 2.463-2.46 2.465l-88.833.104c-1.354 0-2.465-1.106-2.466-2.462l-.048-42.713c-.003-1.353 1.103-2.465 2.46-2.465zM360.443 506.56l44.183-.048c.28 0 .51.23.51.51l.012 8.87c0 .282-.23.515-.51.513l-44.183.053c-.282 0-.51-.23-.512-.512l-.01-8.873c0-.28.23-.51.51-.512zM409 506.506l44.18-.05c.282 0 .51.228.51.51l.013 8.872c0 .28-.23.512-.513.512l-44.18.05c-.282 0-.51-.23-.513-.51l-.01-8.87c0-.282.23-.512.512-.514z"/><path opacity=".7" fill="#58D6D6" d="M244.277 253.78l302.885 60.152 20.892-60.524z"/></g><path fill="#E2DED9" d="M598.613 206.16l132.555 62.736L706.033 322z"/><path fill="#FDFDFD" d="M598.613 206.16L706.033 322l-21.206-75.038z"/><path fill="#E2DED9" d="M598.613 206.16l132.555 62.736 25.135-53.105z"/><path fill="#FDFDFD" d="M598.613 206.16l157.69 9.63-71.476 31.172z"/><path fill="#B4B4B4" d="M598.613 206.16l144.693 68.48-16.248.977z"/><path fill="#FDFDFD" d="M598.613 206.16l144.693 68.482-9.546-13.186z"/><path opacity=".4" fill="#FDFDFD" d="M336.063 252.604c1.228 2.935 3.488 5.733 7.046 8.08-8.855-1.98-15.798 2.278-16.615 10.646-1.107 11.344 7.327 13.44 15.135 14.15 1.337 31.4 37.683 34.484 53.666 10.38 5.212 22.96 43.802 21.24 43.77-5.51 13.53 4.25 31.335-5.532 32.036-22.58.244-5.92-1.066-10.943-3.574-15.167H336.063z"/><path fill-rule="evenodd" clip-rule="evenodd" fill="#fff" d="M271.388 157.29c13.73.21 24.697 11.512 24.486 25.247-.14 8.948-4.983 16.723-12.152 20.994l-2.933 20.455-20.84-.318-2.308-20.536c-7.028-4.487-11.64-12.406-11.5-21.354.212-13.735 11.51-24.697 25.246-24.487z"/><path fill="#FFAE00" d="M266.45 213.254c.123.53-.214 1.058-.742 1.18-.537.116-1.064-.218-1.182-.746l-3.965-17.307.127-8.09.093.2c-.02-.092-.05-.177-.093-.253v-.042c.355.39.742.754 1.158 1.1 2.406 2 5.586 3.083 8.748 3.148 3.144.06 6.254-.885 8.547-2.92.383-.333.743-.71 1.088-1.124.346-.42.972-.475 1.392-.13.313.264.425.678.313 1.05l-6.412 24.537c-.14.523-.676.843-1.21.71-.522-.138-.844-.675-.704-1.205l5.585-21.388c-2.498 1.714-5.562 2.503-8.64 2.438-3.217-.065-6.458-1.063-9.078-2.92l4.98 21.762zm-5.888-16.872l-1.705-7.454c-.122-.538.21-1.065.748-1.187.378-.083.76.066.986.356l.1.098v.042c-.034-.05-.066-.098-.1-.14l.1.193-.128 8.092z"/><path fill-rule="evenodd" clip-rule="evenodd" fill="#FFAE00" d="M256.442 211.083l28.237.432-1.612 13.124c-.294 2.372-.396 3.502-3.568 3.453l-18.387-.28c-3.167-.05-3.24-1.174-3.456-3.56l-1.215-13.17z"/><g fill="#fff"><path d="M286.85 136.644c.24-.638.954-.958 1.59-.715.634.237.957.952.714 1.59l-5.68 14.893c-.242.637-.952.96-1.592.717-.64-.24-.958-.96-.715-1.59l5.684-14.896zM301.273 144.768c.448-.516 1.228-.575 1.747-.128.514.44.574 1.23.126 1.745l-10.43 12.05c-.447.516-1.227.57-1.746.127-.514-.448-.575-1.223-.126-1.742l10.43-12.052zM312.057 157.333c.598-.334 1.35-.122 1.68.474.333.6.123 1.345-.47 1.684l-13.928 7.756c-.6.337-1.35.122-1.687-.474-.332-.598-.117-1.347.48-1.68l13.924-7.76zM317.895 172.825c.673-.103 1.308.355 1.415 1.032.108.67-.355 1.305-1.028 1.412l-15.744 2.53c-.672.106-1.308-.352-1.41-1.03-.107-.676.35-1.31 1.023-1.417l15.745-2.528zM270.504 133.95c.01-.69.575-1.234 1.256-1.225.687.012 1.23.573 1.22 1.26l-.244 15.935c-.01.686-.57 1.232-1.256 1.22-.682-.008-1.228-.57-1.22-1.258l.244-15.933zM254.233 136.987c-.224-.647.117-1.35.766-1.57.644-.223 1.35.12 1.564.765l5.22 15.062c.226.637-.115 1.347-.755 1.567-.65.225-1.355-.118-1.575-.763l-5.222-15.06zM239.977 145.417c-.427-.528-.348-1.312.18-1.74.528-.43 1.308-.348 1.742.182l10.055 12.364c.43.533.345 1.305-.183 1.738-.532.427-1.303.347-1.737-.18l-10.058-12.365zM229.463 158.21c-.585-.356-.775-1.11-.422-1.7.353-.583 1.108-.772 1.693-.42l13.685 8.182c.582.35.773 1.106.423 1.693s-1.11.778-1.694.422l-13.683-8.178zM223.965 173.827c-.674-.125-1.11-.775-.983-1.443.127-.673.775-1.11 1.446-.988l15.654 3.01c.672.126 1.11.773.985 1.445-.13.676-.78 1.115-1.448.987l-15.655-3.01z"/></g><g fill="#fff"><path d="M526.824 183.818c-1.63.895-3.16 2.04-4.53 3.44-7.473 7.626-7.342 19.873.29 27.342 6.23 6.103 15.54 7.134 22.816 3.147l3.29 6.01c-2.382 1.303-4.92 2.215-7.524 2.72l.047 4.538-9.56.102-.05-4.535c-3.546-.62-6.987-1.973-10.09-4.056l-3.17 3.244-6.83-6.696 3.172-3.236c-2.153-3.056-3.58-6.47-4.27-10l-4.533.05-.102-9.566 4.533-.045c.616-3.55 1.972-6.986 4.056-10.09l-3.242-3.17 6.69-6.83 3.237 3.168c.805-.568 1.63-1.08 2.48-1.542l3.29 6.005zm23.884-4.777l3.17-3.24 6.833 6.687-3.168 3.242c2.15 3.056 3.576 6.47 4.267 10l4.53-.047.103 9.558-4.536.054c-.612 3.544-1.965 6.984-4.052 10.087l3.24 3.172-6.69 6.833-3.24-3.174c-.8.568-1.63 1.085-2.475 1.547l-3.29-6.01c1.63-.892 3.157-2.038 4.53-3.434 7.47-7.634 7.34-19.873-.292-27.35-6.233-6.097-15.542-7.13-22.814-3.145l-3.288-6.005c2.374-1.305 4.918-2.216 7.52-2.722l-.045-4.537 9.563-.097.047 4.527c3.545.617 6.987 1.97 10.088 4.058zM486.596 159.654c-1.144.625-2.21 1.422-3.168 2.405-5.216 5.325-5.126 13.883.205 19.1 4.354 4.268 10.858 4.983 15.94 2.202l2.298 4.198c-1.662.91-3.435 1.546-5.254 1.902l.034 3.166-6.682.072-.036-3.168c-2.473-.427-4.88-1.374-7.045-2.833l-2.217 2.26-4.772-4.672 2.213-2.262c-1.502-2.136-2.496-4.52-2.98-6.982l-3.164.033-.074-6.685 3.167-.034c.432-2.475 1.377-4.883 2.837-7.05l-2.266-2.21 4.672-4.775 2.266 2.218c.56-.395 1.138-.756 1.73-1.08l2.298 4.194zm16.682-3.34l2.22-2.26 4.773 4.68-2.217 2.255c1.505 2.135 2.498 4.52 2.984 6.984l3.167-.032.07 6.68-3.168.037c-.432 2.476-1.375 4.88-2.833 7.045l2.264 2.216-4.675 4.774-2.265-2.215c-.557.395-1.135.754-1.728 1.08l-2.298-4.2c1.14-.622 2.207-1.427 3.165-2.404 5.218-5.33 5.13-13.882-.202-19.106-4.358-4.26-10.86-4.982-15.94-2.197l-2.3-4.194c1.662-.918 3.438-1.547 5.257-1.91l-.034-3.164 6.68-.072.035 3.167c2.477.434 4.885 1.38 7.045 2.835z"/></g></g></svg>